<svg xmlns="http://www.w3.org/2000/svg" xmlns:xlink="http://www.w3.org/1999/xlink" viewBox="0 0 270.91 371.41"><defs><style>.cls-1{fill:url(#linear-gradient);}.cls-2{fill:url(#linear-gradient-2);}.cls-3{isolation:isolate;}.cls-4{fill:#40301a;}.cls-5{clip-path:url(#clip-path);}.cls-6{fill:#e8c884;}.cls-11,.cls-7{mix-blend-mode:overlay;}.cls-8{fill:#999;}.cls-9{mix-blend-mode:multiply;}.cls-10{clip-path:url(#clip-path-2);}.cls-11{opacity:0.5;}.cls-12{fill:#594224;}.cls-13{fill:#f2f2f2;}</style><linearGradient id="linear-gradient" x1="120.68" y1="8.2" x2="120.68" y2="330.77" gradientUnits="userSpaceOnUse"><stop offset="0" stop-color="#594224"/><stop offset="1" stop-color="#40301a"/></linearGradient><linearGradient id="linear-gradient-2" x1="120.21" y1="-0.42" x2="120.21" y2="326.99" gradientUnits="userSpaceOnUse"><stop offset="0" stop-color="#c4944b"/><stop offset="1" stop-color="#79522b"/></linearGradient><clipPath id="clip-path" transform="translate(14.21 23.45)"><path class="cls-1" d="M113.08,329.13a7.64,7.64,0,0,1-3.32-1l-1.92-1.2a6,6,0,0,0-3.3-.75l-20.89,2.4c-1,.11-2.59.32-3.56.47l-21,3.19a2.15,2.15,0,0,1-2.29-1.45l-.08-.29a1.64,1.64,0,0,0-2.19-1.08L50,331.15a9.48,9.48,0,0,1-3.47.49l-29.85-2.53a7.64,7.64,0,0,1-3.24-1.21l-7.12-5.2a4,4,0,0,1-1.46-2.85v-23.6c0-1-.08-2.6-.17-3.58L2.37,268.83a35.59,35.59,0,0,1-.14-3.58l.45-23.93a3.41,3.41,0,0,1,1.62-2.65l.38-.21A1.22,1.22,0,0,0,5,236.37l-1.72-1.64a1.1,1.1,0,0,1,.35-1.94l.94-.4c.91-.39,1.41-1,1.13-1.27A5.16,5.16,0,0,1,5,228.78L2.45,204a7.28,7.28,0,0,1,.63-3.38l.47-.93a6.29,6.29,0,0,0,.5-3.37l-.1-.6a28.23,28.23,0,0,1-.35-3.56l-.27-16.2a6.61,6.61,0,0,1,1-3.29l1.61-2.38a1.27,1.27,0,0,0-.7-2l-1.94-.61a2.23,2.23,0,0,1-1.47-2.32l2.47-18.58c.14-1,.26-2.59.3-3.58l.51-18.42a18.34,18.34,0,0,1,.52-3.53l.08-.31a5.8,5.8,0,0,0-.29-3.37l-.1-.21a11.31,11.31,0,0,1-.86-3.42L3.34,94.16c-.06-1-.11-2.61-.11-3.59L3.08,70.81c0-1,0-2.6,0-3.59l.17-19.83a8,8,0,0,1,.92-3.34l2.67-4.58a7,7,0,0,0,.81-3.34L6.53,16.87a8.49,8.49,0,0,1,.64-3.42L9.73,7.88A3.74,3.74,0,0,1,12.25,6l24.8-4a2.62,2.62,0,0,1,2.57,1.32l1.07,2.16A3.08,3.08,0,0,0,43.28,7l27.89-.48c1,0,2.6-.09,3.58-.16l27.71-2c1-.08,2.6-.11,3.59-.08l30.68.85,3.59.08,28.56.32c1,0,2.6.06,3.59.12L201,7.24a2.29,2.29,0,0,0,2.24-1.64l.59-2.26a2.13,2.13,0,0,1,2.23-1.53L233.57,5a2,2,0,0,1,1.73,2l-.65,21.46c0,1,0,2.6,0,3.59l.5,20.94a3.58,3.58,0,0,1-1.46,2.77l-.22.13c-.83.54-1.53,1.26-1.54,1.61s.75.78,1.71.95a2.6,2.6,0,0,1,2,2.09l1.23,9.09a14.06,14.06,0,0,1,0,3.55l-1.45,8.65a20.64,20.64,0,0,1-.95,3.44l-2.23,5.7a6.85,6.85,0,0,0-.26,3.42l4,17.86a15.6,15.6,0,0,1,.31,3.54L234.69,147a4.54,4.54,0,0,0,1.2,3.05l2.58,2.51a4.16,4.16,0,0,1,1.09,3l-2.19,20.15a6.13,6.13,0,0,1-1.43,3.08l-.73.76c-.69.71-.55,1.54.3,1.84a2.38,2.38,0,0,1,1.41,2.35l-2,24a28.49,28.49,0,0,0,0,3.58l1.54,24.21a3.34,3.34,0,0,1-1.4,2.75l-3.14,2a2.67,2.67,0,0,0-1.07,2.71l2.48,9.55a18.18,18.18,0,0,1,.48,3.53l.36,28.16a10,10,0,0,0,.78,3.42l1.64,3.53a3.94,3.94,0,0,1-.12,3.19l-.83,1.47a7.75,7.75,0,0,0-.83,3.36l.62,23.59a3.19,3.19,0,0,1-1.53,2.64l-12.53,6.75a7.41,7.41,0,0,1-3.37.72l-23.48-1.68c-1-.07-2.6-.15-3.58-.17l-23.58-.48c-1,0-2.6-.06-3.59-.1l-23.54-.88-3.59-.1Z"/></clipPath><clipPath id="clip-path-2" transform="translate(14.21 23.45)"><polygon class="cls-2" points="9.46 16.03 13.05 10.64 37.1 6.34 39.62 10.28 104.24 7.05 138.35 9.21 205.48 11 206.91 5.98 231.33 8.85 231.69 52.65 228.46 54.44 228.1 57.68 223.43 60.19 231.33 61.98 232.77 71.68 232.77 82.81 226.66 91.78 231.33 114.4 230.97 149.94 234.56 154.97 233.12 175.79 226.66 181.9 232.41 184.41 231.33 235.75 227.02 240.41 231.33 254.78 230.61 286.73 232.77 292.48 230.25 296.42 230.61 322.27 218.76 329.81 112.5 326.58 107.47 322.27 60.08 327.66 58.64 322.27 47.51 327.66 15.92 326.58 7.66 320.12 7.3 241.49 11.97 238.26 8.02 233.59 11.25 230.72 7.66 228.57 7.3 203.08 9.82 198.05 7.3 193.03 6.94 175.07 11.61 167.17 5.87 164.66 7.3 123.73 9.82 119.07 7.3 114.76 8.02 46.19 10.18 38.29 9.46 16.03"/></clipPath></defs><g class="cls-3"><g id="Layer_2" data-name="Layer 2"><g id="Layer_1-2" data-name="Layer 1"><path class="cls-4" d="M218.19,334.8h-.41l-23.48-1.68c-1-.07-2.53-.14-3.49-.16l-23.58-.49c-1,0-2.62-.06-3.61-.1l-23.54-.87c-1,0-2.58-.09-3.56-.11L113,330.92a9.47,9.47,0,0,1-4.23-1.27l-1.92-1.2A4.42,4.42,0,0,0,105,328l-21.1,2.41c-1,.11-2.53.32-3.49.47L59.4,334a4,4,0,0,1-4.27-2.71L55,331l-4.42,1.82a10.88,10.88,0,0,1-4.24.59l-29.86-2.53a9.27,9.27,0,0,1-4.15-1.54l-7.12-5.2a5.74,5.74,0,0,1-2.19-4.3v-23.6c0-.94-.07-2.48-.16-3.41L.58,269c-.1-1.08-.16-2.75-.15-3.79l.46-23.93a5.18,5.18,0,0,1,2.35-4.07L2,236a3,3,0,0,1-1-2.7,3,3,0,0,1,1.85-2.2l.66-.28A9.82,9.82,0,0,1,3.17,229L.67,204.15a9,9,0,0,1,.81-4.38l.47-.93a4.82,4.82,0,0,0,.34-2.25L2.18,196a29.83,29.83,0,0,1-.37-3.85L1.54,176a8.47,8.47,0,0,1,1.28-4.32l1.28-1.88-1.36-.43A4,4,0,0,1,0,165.05L2.5,146.47c.13-.93.25-2.46.28-3.39l.52-18.42a20.24,20.24,0,0,1,.57-3.94L4,120.4a4.11,4.11,0,0,0-.19-2.14A13.25,13.25,0,0,1,2.65,114L1.55,94.26c-.06-1-.11-2.67-.12-3.68L1.29,70.83c0-1,0-2.63,0-3.62l.16-19.83a10,10,0,0,1,1.17-4.24l2.67-4.58a5.24,5.24,0,0,0,.57-2.33L4.74,17a10.27,10.27,0,0,1,.81-4.27L8.1,7.13A5.52,5.52,0,0,1,12,4.19L36.76.2a4.45,4.45,0,0,1,4.46,2.29L42.3,4.65a1.37,1.37,0,0,0,1,.59l27.89-.48c1,0,2.53-.09,3.49-.16l27.7-2c.8-.05,2-.09,3-.09h.81l30.68.86c1,0,2.58.06,3.56.07l28.56.32c1,0,2.66.07,3.67.13L201.1,5.44h0a.56.56,0,0,0,.41-.3l.58-2.25A3.94,3.94,0,0,1,205.85,0l.41,0,27.51,3.15A3.76,3.76,0,0,1,237.09,7l-.65,21.47c0,1,0,2.53,0,3.49l.51,20.94A5.39,5.39,0,0,1,235,57a4.39,4.39,0,0,1,2.42,3.27l1.23,9.09a16,16,0,0,1-.06,4.09l-1.45,8.65a22.62,22.62,0,0,1-1,3.79l-2.24,5.7a5.2,5.2,0,0,0-.18,2.38l4,17.86a17.48,17.48,0,0,1,.34,4l-1.53,31.27a2.86,2.86,0,0,0,.66,1.67l2.58,2.52a5.87,5.87,0,0,1,1.62,4.51L239.16,176a8,8,0,0,1-1.93,4.13l-.17.17a4.25,4.25,0,0,1,1.64,3.68l-2,24a26.1,26.1,0,0,0,0,3.31l1.54,24.21a5.16,5.16,0,0,1-2.22,4.38l-3.15,2a.91.91,0,0,0-.29.74l2.48,9.56a19.36,19.36,0,0,1,.53,4l.37,28.15a8.29,8.29,0,0,0,.61,2.69l1.64,3.53a5.71,5.71,0,0,1-.18,4.83l-.84,1.47a6.22,6.22,0,0,0-.6,2.44l.63,23.58a5,5,0,0,1-2.48,4.27l-12.53,6.75A9.33,9.33,0,0,1,218.19,334.8ZM105,324.36a7.85,7.85,0,0,1,3.85,1.05l1.91,1.2a5.86,5.86,0,0,0,2.4.72l23.48.47c1,0,2.62.06,3.62.1l23.54.88,3.56.1,23.58.48c1,0,2.66.09,3.67.17l23.63,1.68a5.89,5.89,0,0,0,2.24-.51L233,324a1.5,1.5,0,0,0,.59-1l-.63-23.58a9.56,9.56,0,0,1,1.07-4.29l.82-1.47a2.18,2.18,0,0,0,.06-1.55l-1.64-3.54a11.62,11.62,0,0,1-.94-4.15l-.37-28.15a16.17,16.17,0,0,0-.42-3.11L229,243.54a4.42,4.42,0,0,1,1.83-4.67l3.15-2a1.65,1.65,0,0,0,.57-1.13L233,211.52a30.73,30.73,0,0,1,0-3.84l2-24.05a.71.71,0,0,0-.24-.51,2.76,2.76,0,0,1-1.84-2,3,3,0,0,1,.87-2.79l.72-.76a4.34,4.34,0,0,0,1-2l2.19-20.16a2.49,2.49,0,0,0-.56-1.55l-2.59-2.52a6.27,6.27,0,0,1-1.73-4.42l1.52-31.26a13.75,13.75,0,0,0-.26-3.07l-4-17.85a8.72,8.72,0,0,1,.34-4.47l2.23-5.7a19.36,19.36,0,0,0,.85-3.09L235,72.83a12.12,12.12,0,0,0,0-3l-1.23-9.09a.86.86,0,0,0-.52-.56c-2-.38-3.27-1.45-3.19-2.82s1.67-2.58,2.36-3a1.89,1.89,0,0,0,.86-1.34l-.51-21c0-1,0-2.67,0-3.68l.65-21.47-27.64-3.3h0a.36.36,0,0,0-.29.2L205,6.05a4.1,4.1,0,0,1-3.88,3L172.37,7.46c-1,0-2.55-.1-3.52-.12L140.3,7c-1,0-2.62,0-3.62-.07l-31.39-.87c-.89,0-2,0-2.7.09l-27.71,2c-1,.07-2.66.15-3.68.17l-27.89.47h0a4.89,4.89,0,0,1-4.23-2.57L38,4.09a.87.87,0,0,0-.64-.35l-24.84,4a2,2,0,0,0-1.17.89L8.8,14.2a6.86,6.86,0,0,0-.48,2.57L9.44,36a8.76,8.76,0,0,1-1,4.36L5.72,45A6.41,6.41,0,0,0,5,47.41L4.87,67.24V70.8L5,90.55c0,1,.06,2.55.11,3.51l1.1,19.7a9.81,9.81,0,0,0,.7,2.77,7.64,7.64,0,0,1,.49,4.8l-.08.32a16.43,16.43,0,0,0-.45,3.11l-.52,18.42c0,1.07-.17,2.75-.3,3.76L3.59,165.52a.44.44,0,0,0,.24.37l1.93.62a3.06,3.06,0,0,1,1.65,4.75l-1.62,2.38a5.12,5.12,0,0,0-.67,2.25l.28,16.2a26,26,0,0,0,.31,3.28l.11.59a8.17,8.17,0,0,1-.67,4.5l-.47.93a5.63,5.63,0,0,0-.44,2.4l2.5,24.81a4.71,4.71,0,0,0,.35,1.45,2,2,0,0,1,.4,1.72A3.62,3.62,0,0,1,5.23,234l-.07,0,1,1a3.09,3.09,0,0,1,1,2.66A3.13,3.13,0,0,1,5.54,240l-.39.21a1.68,1.68,0,0,0-.67,1.1L4,265.28c0,.9.05,2.44.14,3.38l2.3,23.83c.1,1,.18,2.72.18,3.76v23.6a2.28,2.28,0,0,0,.71,1.4l7.12,5.2a6,6,0,0,0,2.34.87L47,329.86a7.91,7.91,0,0,0,2.38-.39l4.57-1.73A3.5,3.5,0,0,1,58.48,330l.09.29a.36.36,0,0,0,.28.18l21-3.18c1-.15,2.62-.37,3.62-.48l20.89-2.4A4,4,0,0,1,105,324.36Z" transform="translate(14.21 23.45)"/><path class="cls-1" d="M113.08,329.13a7.64,7.64,0,0,1-3.32-1l-1.92-1.2a6,6,0,0,0-3.3-.75l-20.89,2.4c-1,.11-2.59.32-3.56.47l-21,3.19a2.15,2.15,0,0,1-2.29-1.45l-.08-.29a1.64,1.64,0,0,0-2.19-1.08L50,331.15a9.48,9.48,0,0,1-3.47.49l-29.85-2.53a7.64,7.64,0,0,1-3.24-1.21l-7.12-5.2a4,4,0,0,1-1.46-2.85v-23.6c0-1-.08-2.6-.17-3.58L2.37,268.83a35.59,35.59,0,0,1-.14-3.58l.45-23.93a3.41,3.41,0,0,1,1.62-2.65l.38-.21A1.22,1.22,0,0,0,5,236.37l-1.72-1.64a1.1,1.1,0,0,1,.35-1.94l.94-.4c.91-.39,1.41-1,1.13-1.27A5.16,5.16,0,0,1,5,228.78L2.45,204a7.28,7.28,0,0,1,.63-3.38l.47-.93a6.29,6.29,0,0,0,.5-3.37l-.1-.6a28.23,28.23,0,0,1-.35-3.56l-.27-16.2a6.61,6.61,0,0,1,1-3.29l1.61-2.38a1.27,1.27,0,0,0-.7-2l-1.94-.61a2.23,2.23,0,0,1-1.47-2.32l2.47-18.58c.14-1,.26-2.59.3-3.58l.51-18.42a18.34,18.34,0,0,1,.52-3.53l.08-.31a5.8,5.8,0,0,0-.29-3.37l-.1-.21a11.31,11.31,0,0,1-.86-3.42L3.34,94.16c-.06-1-.11-2.61-.11-3.59L3.08,70.81c0-1,0-2.6,0-3.59l.17-19.83a8,8,0,0,1,.92-3.34l2.67-4.58a7,7,0,0,0,.81-3.34L6.53,16.87a8.49,8.49,0,0,1,.64-3.42L9.73,7.88A3.74,3.74,0,0,1,12.25,6l24.8-4a2.62,2.62,0,0,1,2.57,1.32l1.07,2.16A3.08,3.08,0,0,0,43.28,7l27.89-.48c1,0,2.6-.09,3.58-.16l27.71-2c1-.08,2.6-.11,3.59-.08l30.68.85,3.59.08,28.56.32c1,0,2.6.06,3.59.12L201,7.24a2.29,2.29,0,0,0,2.24-1.64l.59-2.26a2.13,2.13,0,0,1,2.23-1.53L233.57,5a2,2,0,0,1,1.73,2l-.65,21.46c0,1,0,2.6,0,3.59l.5,20.94a3.58,3.58,0,0,1-1.46,2.77l-.22.13c-.83.54-1.53,1.26-1.54,1.61s.75.78,1.71.95a2.6,2.6,0,0,1,2,2.09l1.23,9.09a14.06,14.06,0,0,1,0,3.55l-1.45,8.65a20.64,20.64,0,0,1-.95,3.44l-2.23,5.7a6.85,6.85,0,0,0-.26,3.42l4,17.86a15.6,15.6,0,0,1,.31,3.54L234.69,147a4.54,4.54,0,0,0,1.2,3.05l2.58,2.51a4.16,4.16,0,0,1,1.09,3l-2.19,20.15a6.13,6.13,0,0,1-1.43,3.08l-.73.76c-.69.71-.55,1.54.3,1.84a2.38,2.38,0,0,1,1.41,2.35l-2,24a28.49,28.49,0,0,0,0,3.58l1.54,24.21a3.34,3.34,0,0,1-1.4,2.75l-3.14,2a2.67,2.67,0,0,0-1.07,2.71l2.48,9.55a18.18,18.18,0,0,1,.48,3.53l.36,28.16a10,10,0,0,0,.78,3.42l1.64,3.53a3.94,3.94,0,0,1-.12,3.19l-.83,1.47a7.75,7.75,0,0,0-.83,3.36l.62,23.59a3.19,3.19,0,0,1-1.53,2.64l-12.53,6.75a7.41,7.41,0,0,1-3.37.72l-23.48-1.68c-1-.07-2.6-.15-3.58-.17l-23.58-.48c-1,0-2.6-.06-3.59-.1l-23.54-.88-3.59-.1Z" transform="translate(14.21 23.45)"/><g class="cls-5"><polygon class="cls-6" points="49.21 31.31 53.7 22.24 50.54 31.85 49.21 31.31"/><polygon class="cls-6" points="26.75 35.28 21.87 25.11 28 34.58 26.75 35.28"/><polygon class="cls-6" points="24.47 41.15 14.69 39.95 24.54 39.72 24.47 41.15"/><polygon class="cls-6" points="25.62 62.45 17.32 60.78 25.78 61.02 25.62 62.45"/><polygon class="cls-6" points="23.36 69.87 13.97 69.87 23.25 68.44 23.36 69.87"/><polygon class="cls-6" points="22.5 106.48 15.17 104.82 22.68 105.06 22.5 106.48"/><polygon class="cls-6" points="22.19 138.73 14.69 141.68 21.55 137.44 22.19 138.73"/><polygon class="cls-6" points="23.04 148.57 17.32 145.5 23.57 147.23 23.04 148.57"/><polygon class="cls-6" points="21.21 188.28 12.54 191.46 20.62 186.98 21.21 188.28"/><polygon class="cls-6" points="22.68 199.58 11.82 196.49 22.98 198.18 22.68 199.58"/><polygon class="cls-6" points="23.75 217.76 13.97 219.94 23.34 216.39 23.75 217.76"/><polygon class="cls-6" points="22.47 227.35 12.54 224.97 22.71 225.94 22.47 227.35"/><polygon class="cls-6" points="24.2 258.24 13.97 256.56 24.33 256.81 24.2 258.24"/><polygon class="cls-6" points="23.61 266.83 11.34 263.02 23.96 265.44 23.61 266.83"/><polygon class="cls-6" points="53.26 33.29 59.21 26.79 54.4 34.17 53.26 33.29"/><polygon class="cls-6" points="220.23 35.64 214.31 27.75 221.31 34.7 220.23 35.64"/><polygon class="cls-6" points="221.58 30.98 216.7 21.05 222.83 30.26 221.58 30.98"/><polygon class="cls-6" points="244.49 32.22 254.99 24.64 245.39 33.33 244.49 32.22"/><polygon class="cls-6" points="116.3 30.21 122.88 22 117.48 31.03 116.3 30.21"/><polygon class="cls-6" points="245.25 74.49 252.6 78.73 244.64 75.79 245.25 74.49"/><polygon class="cls-6" points="244.07 85.78 255.23 79.45 244.85 86.99 244.07 85.78"/><polygon class="cls-6" points="244.65 108.47 257.15 103.62 245.24 109.78 244.65 108.47"/><polygon class="cls-6" points="244.09 172.81 256.19 171.36 244.35 174.22 244.09 172.81"/><polygon class="cls-6" points="246.97 178.31 262.65 176.14 247.23 179.72 246.97 178.31"/><polygon class="cls-6" points="246.76 198.51 256.91 205.82 245.99 199.73 246.76 198.51"/><polygon class="cls-6" points="245.34 208.53 257.39 203.43 245.98 209.82 245.34 208.53"/><polygon class="cls-6" points="243.01 257.31 256.67 262.55 242.56 258.68 243.01 257.31"/><polygon class="cls-6" points="244.61 283.86 252.6 286.24 244.32 285.27 244.61 283.86"/><polygon class="cls-6" points="246.19 314.96 256.43 316.4 246.09 316.4 246.19 314.96"/><g class="cls-7"><path class="cls-8" d="M6.46,7.89c0,2.2-1.09,4.52-1.09,6.46,0,3,3.62,4.57,5.68,4.57,5.11,0,58.59-25.7-2.67-15.1C6.2,4.2,6.94,7.17,5.75,9.09Z" transform="translate(14.21 23.45)"/></g><g class="cls-7"><path class="cls-8" d="M5.51,6.46A9.33,9.33,0,0,0,3.6,12.79c0,4.12-.09,8.07,3.83,8.07,2.43,0,5.27-2.25,5.27-7.8,0-3.41-.53-7.79-4.77-7.79A3.08,3.08,0,0,0,5.51,6.46Z" transform="translate(14.21 23.45)"/></g><g class="cls-7"><path class="cls-8" d="M6.46,9.81c.55,1.09,4.84,7.45,4.84,3.1,0-2.52-2.33-4.34-3.44-4.34A1.7,1.7,0,0,0,6.46,9.81Z" transform="translate(14.21 23.45)"/></g><g class="cls-7"><path class="cls-8" d="M102,2.87c-.69,0-1.39-.05-2.09-.05-9.59,0-16,3.83-16,5.3,0,1.26,8.73,4.59,16.93,4.59,28.65,0,14.19-10.9,1.73-10.9a25.62,25.62,0,0,0-4.21.34Z" transform="translate(14.21 23.45)"/></g><g class="cls-7"><path class="cls-8" d="M202.49.47a9.08,9.08,0,0,0-.12,1.46c0,4.19,5.77,14.45,5.77,7.15,0-6.73-3.43-9.3-4.68-9.3s-1.62,1.94-1.62,3.63c0,2.68,2.06,7.85,5.73,7.85.86,0,1.47-.29,1.47-1.65s-2.22-7.74-4.92-7.74c-2.46,0-1.59,2.76-2.11,4.59Z" transform="translate(14.21 23.45)"/></g><g class="cls-7"><path class="cls-8" d="M199.61,1.19c0,.13,0,.26,0,.39,0,2.54,3.61,8,7.32,8a64.87,64.87,0,0,1,8.81.36c1.84,0,3.68-.23,5.51-.23s1.91.18,3.43.18c9.08,0,10.92-3,10.92-7.2,0-2.64-18.79-5-19.15-5-2.73,0-5.43,1.17-8,2.34Z" transform="translate(14.21 23.45)"/></g><g class="cls-7"><path class="cls-8" d="M4.31,39.72C.79,46-.75,54.2-.75,61.07s3.08,19.6,6.52,19.6c4.79,0,7.67-29.42,7.67-32.9,0-9.21-2.28-9.42-6.34-9.42A28,28,0,0,0-.48,39.48Z" transform="translate(14.21 23.45)"/></g><g class="cls-7"><path class="cls-8" d="M.24,37.57a4.2,4.2,0,0,0-.1.93c0,3.89,7.83,10,10,10,1.68,0,2.86-1.86,2.86-3.94,0-4.15-2.58-7.11-9-7.11C2.77,37.49,1.49,37.57.24,37.57Z" transform="translate(14.21 23.45)"/></g><g class="cls-7"><path class="cls-8" d="M4.79,119a5.12,5.12,0,0,0-1.39,3.56,4.33,4.33,0,0,0,4.27,4.63c3,0,4.65-3,4.65-5.81,0-2.45-1-4-3.52-4A5.73,5.73,0,0,0,4.79,119Z" transform="translate(14.21 23.45)"/></g><g class="cls-7"><path class="cls-8" d="M1.92,122.3a4.31,4.31,0,0,0-.23,1.42c0,3.13,3.09,6.29,6,6.29,2.27,0,2.87-2.08,2.87-4.36a5.63,5.63,0,0,0-5.53-6H4.79A3.46,3.46,0,0,0,1.92,122.3Z" transform="translate(14.21 23.45)"/></g><g class="cls-7"><path class="cls-8" d="M3.83,169.69a5.57,5.57,0,0,0-1.27,3.46c0,2.34,1.76,3.33,4,3.33a5.87,5.87,0,0,0,5.67-5.5,3.12,3.12,0,0,0-3.28-3.07c-2.08,0-4.25,2.16-5.55,3.45Z" transform="translate(14.21 23.45)"/></g><g class="cls-7"><path class="cls-8" d="M1.2,200.32a9.36,9.36,0,0,0,7,3.32c1.49,0,3.53-.5,3.53-2.18a4.39,4.39,0,0,0-4.21-4.26c-2.09,0-3.88,1.77-5.12,3.36Z" transform="translate(14.21 23.45)"/></g><g class="cls-7"><path class="cls-8" d="M1.68,203.68c-.24,3.44-.47,6.81-.47,10.22,0,5.16.7,17.37,6,17.37,3.11,0,2.87-3.12,2.87-3.8,0-6.68-1.48-15.89-1.48-18.69s1.79-5.44,1.79-8S9.1,197.43,7,197.43c-6.9,0-7.33,2.68-7.33,4.72,0,1.5.31,3.2.31,4.64Z" transform="translate(14.21 23.45)"/></g><g class="cls-7"><path class="cls-8" d="M2.64,237.18c-3.09,0,9.82,1.7,9.82,2.52,0,0-2.91,15.36-2.91,21s1.34,11.43,1.34,17.2c0,.94,0,1.88-.12,2.83-.72-.4-12.68-1.22-12.68-23.62A65.08,65.08,0,0,1,0,242.93,19.06,19.06,0,0,1,2.64,237.18Z" transform="translate(14.21 23.45)"/></g><g class="cls-7"><path class="cls-8" d="M-2.87,242a14.25,14.25,0,0,0,10.58,5.3c2.89,0,3.31-.55,3.31-2.27,0-5.69-5.57-8-8-8a5.8,5.8,0,0,0-2.08.45C-.93,238.21-1.44,240.29-2.87,242Z" transform="translate(14.21 23.45)"/></g><g class="cls-7"><path class="cls-8" d="M.72,239.1c2.44,1.33,4.86,3.39,7.49,3.39.71,0,1,0,1-.74,0-3-4.8-3.67-5.78-3.67A3.88,3.88,0,0,0,.72,239.1Z" transform="translate(14.21 23.45)"/></g><g class="cls-7"><path class="cls-8" d="M-1.19,206.55c1.34,1.85,3.82,3.89,6,3.89,2.72,0,4.21-3.39,4.21-6,0-3.08-1.35-5.12-4.48-5.12-2.53,0-6.51,4.1-6.51,8.2,0,.15,0,.31,0,.46Z" transform="translate(14.21 23.45)"/></g><g class="cls-7"><path class="cls-8" d="M2.16,82.09a2.77,2.77,0,0,0-.45,1.57c0,1.38,1.6,6.14,3.89,6.14,1,0,2.79-1.66,2.79-4.75,0-1.77-.39-4.6-2.68-4.6A4.41,4.41,0,0,0,2.16,82.09Z" transform="translate(14.21 23.45)"/></g><g class="cls-7"><path class="cls-8" d="M33,.47a11.49,11.49,0,0,0-.87,4.07c0,6.82,5,2.39,5-2.88a4.08,4.08,0,0,0-1.94-3.83h0A6.24,6.24,0,0,0,33,.47Z" transform="translate(14.21 23.45)"/></g><g class="cls-7"><path class="cls-8" d="M102,2.62c-1.26,1.9-3,3.62-3,6,0,6.57,8.34,2.93,8.34-4.81,0-2-.53-3.43-2.61-3.43-1.86,0-2.9,2-4,3.24Z" transform="translate(14.21 23.45)"/></g><g class="cls-7"><path class="cls-8" d="M199.86,1.19c-2.13,1.63-4,4.21-4,6.8,0,3.84,4.2,6.44,8.43,6.44,4.74,0,7.31-3.09,7.31-7.32a6.8,6.8,0,0,0-7-7.14,18.5,18.5,0,0,0-7,1.93Z" transform="translate(14.21 23.45)"/></g><g class="cls-7"><path class="cls-8" d="M234.32,3.82a1.66,1.66,0,0,0-.66-.16c-1.55,0-4.14,5.06-4.13,9.65,0,7.54,8.05,4.72,8.05-4,0-5.13-3-8.34-4.7-5.77Z" transform="translate(14.21 23.45)"/></g><g class="cls-7"><path class="cls-8" d="M225.47,57.67a2.91,2.91,0,0,0-.49-.05c-.72,0-3.06.88-3.06,2.19,0,2.36,5.21,3.28,7.05,3.28,3.62,0,6.84-2.39,6.84-4.46A3.44,3.44,0,0,0,232,55.4c-1.9,0-4.1.8-5.86,1.08Z" transform="translate(14.21 23.45)"/></g><g class="cls-9"><path class="cls-8" d="M3.35,118.7c1.84,1.38,3.46,3.84,5.91,3.84,1,0,1.2-.88,1.2-1.85,0-3-3.36-3.82-4.63-3.82A2.37,2.37,0,0,0,3.35,118.7Z" transform="translate(14.21 23.45)"/></g><g class="cls-9"><path class="cls-8" d="M.24,166.81a2,2,0,0,0-.08.55c0,1.24,6.06,2.24,7.09,2.24,1.6,0,3.37-.62,3.37-2.33,0-1.46-.78-3.58-2.11-3.58H8.38C5.51,164,3.11,166.09.24,166.81Z" transform="translate(14.21 23.45)"/></g><g class="cls-9"><path class="cls-8" d="M2.16,193.86a2.53,2.53,0,0,0,1.61.56c1.4,0,4.23-1.1,4.23-5.25,0-2.37-1.06-7.37-3.28-7.37-2.47,0-4.92,2.58-4.92,6.54A7.12,7.12,0,0,0,2.16,193.86Z" transform="translate(14.21 23.45)"/></g><g class="cls-9"><path class="cls-8" d="M4.79,221.62a1.14,1.14,0,0,0-.49,1c0,2.36,2.9,8.36,2.9,2,0-1.7-.48-3.33-1.93-3.44h0c-.69,0-1.15,1.23-1.15,2.4Z" transform="translate(14.21 23.45)"/></g><g class="cls-9"><path class="cls-8" d="M3.59,234.78c.9,2.47,3.89,4.09,6.43,4.09,1.79,0-1.81-6.7-5.93-6.7-1.24,0-3.43,1.06-3.43,2.26a.63.63,0,0,0,.3.6Z" transform="translate(14.21 23.45)"/></g><g class="cls-9"><path class="cls-8" d="M2.4,277.87c0,3.13,0,6.23,0,9.32,0,33.43,8.48,23,8.48,11.92C10.84,293,7.65,277,1.28,277a2.19,2.19,0,0,0-1.76.9Z" transform="translate(14.21 23.45)"/></g><g class="cls-9"><path class="cls-8" d="M3.35,321.67c2,5.16,9,9.8,10.67,9.8,1,0,1.63-.54,1.63-1.76,0-6.81-7.08-12.17-10.74-12.17-1,0-1.45,1.18-1.45,2.22a3.52,3.52,0,0,0,.06.66Z" transform="translate(14.21 23.45)"/></g><g class="cls-9"><path class="cls-8" d="M46.91,325.5c-.08,1.1-.17,2.26-.17,3.41a10.94,10.94,0,0,0,1.37,5.92c1.2-1.67,3.64-2.11,5-3.59,2.9-3.12,8.9-10.63,4.61-10.63-4.91,0-9.53,2.87-13,6.32Z" transform="translate(14.21 23.45)"/></g><g class="cls-9"><path class="cls-8" d="M86.88,322.14a6.38,6.38,0,0,0-.89,3.28c0,2.55,1.89,3.39,3.57,3.39,2.8,0,6.89-2.63,9.3-2.63.84,0,1.61.31,2.41.31.4,0,6.25-1.62,6.25-3.63,0-2.78-3.77-3-6.64-3-5.61,0-10.94,2.13-16.15,4.17Z" transform="translate(14.21 23.45)"/></g><g class="cls-9"><path class="cls-8" d="M215.89,326c.87,3,1.71,8.32,5.25,8.32.36,0,15.49-3.69,15.49-6.85,0-3.32-3.39-5-6.48-5C225.67,322.48,220.48,325.32,215.89,326Z" transform="translate(14.21 23.45)"/></g><g class="cls-9"><path class="cls-8" d="M229.3,295.82c1.76.39,2.82,2.21,4.34,2.21,2.51,0,5.79-4.95,2.34-4.95-1,0-2.32.61-3.6.61l-.45,0Z" transform="translate(14.21 23.45)"/></g><g class="cls-9"><path class="cls-8" d="M230.25,256.8A5.15,5.15,0,0,1,233,256c1.49,0,2.81.65,2.81,2,0,.87-.43,1.69-1.44,1.69C233,259.66,230.91,258.11,230.25,256.8Z" transform="translate(14.21 23.45)"/></g><g class="cls-9"><path class="cls-8" d="M225.94,240.05c1.67,1,3.38,3.28,5,3.28,1,0,5-2.47,5-4.4,0-2.47-2.76-3.26-5.44-3.26a13.89,13.89,0,0,0-2.94.31C226.36,236.26,226.66,238.61,225.94,240.05Z" transform="translate(14.21 23.45)"/></g><g class="cls-9"><path class="cls-8" d="M231.69,186.2c-.32,3.48-.5,7-.5,10.45,0,14.41,1.16,14.34,4.13,14.34,4.16,0,4.75-23,4.75-23.53,0-1.33-.18-2.76-1.49-2.76-2.71,0-5.2,2.9-8.37,3.13Z" transform="translate(14.21 23.45)"/></g><g class="cls-9"><path class="cls-8" d="M225.71,181.41a18,18,0,0,1,4.86-1.3c1.25,0,2.57.65,3.75.65.5,0,1.41-.18,1.41-.67s-.72-1.33-.72-2c0-.32.15-.15-.46-.15-1,0-5.45-3.08-6.21-4.15C228.1,176.62,225.94,178.54,225.71,181.41Z" transform="translate(14.21 23.45)"/></g><g class="cls-9"><path class="cls-8" d="M229.06,115.83A149.71,149.71,0,0,0,227,138.56c0,16.51,4.47,8.74,11.06,8.15l1.63-27.57c0-7.85-4.39-3.7-12.54-1.16Z" transform="translate(14.21 23.45)"/></g><g class="cls-9"><path class="cls-8" d="M227.14,109.13c.53,3.2,1.47,12.89,3.56,12.89,1.5,0,3.09.35,4.51.35,4,0,5.35-4.72,5.35-7.53,0-3.76-2.15-6.71-5.86-6.71C232.36,108.13,229.76,109.13,227.14,109.13Z" transform="translate(14.21 23.45)"/></g><g class="cls-9"><path class="cls-8" d="M226.9,85.91c-1.92,1.5-3.63,6.5-3.63,6.86s6.32,1.52,7.87,1.52c5.09,0,5.67-3.56,6.05-8.14-6.29,0-14.14-1.15-11.5-1.15.36,0,11.1-1.1,11.1.65,0,10.06-8.7,8.18-13,9.83A31.13,31.13,0,0,1,226.42,84Z" transform="translate(14.21 23.45)"/></g><g class="cls-9"><path class="cls-8" d="M224,56.71c2.95.52,5.94,1.36,8.8,1.36,2.23,0,4.2-.23,4.2-2.46,0-1.07-3.86-4.27-8.72-4.27-2.59,0-1.7,3-3.14,4.77Z" transform="translate(14.21 23.45)"/></g><g class="cls-9"><path class="cls-8" d="M221.4,56.47a64.88,64.88,0,0,0,9.28.59c5.2,0,7.31,1.85,7.31-11.23C223,39,230.59,53,222.75,57.46Z" transform="translate(14.21 23.45)"/></g><g class="cls-9"><path class="cls-8" d="M229.3,155.8c3.69-.78,7.37-1.87,11-1.87a17,17,0,0,1,2.56.19c-5.27,20.49,1.88,34.5-14.43,18.18a2.41,2.41,0,0,1-.64-1.66s3.43-10.15,3.43-15.35Z" transform="translate(14.21 23.45)"/></g></g><polygon class="cls-2" points="23.67 39.48 27.26 34.09 51.31 29.78 53.83 33.73 118.45 30.5 152.56 32.65 219.69 34.45 221.13 29.43 245.54 32.3 245.9 76.09 242.67 77.89 242.31 81.12 237.64 83.64 245.54 85.43 246.98 95.12 246.98 106.25 240.87 115.23 245.54 137.85 245.18 173.39 248.77 178.41 247.33 199.24 240.87 205.34 246.62 207.86 245.54 259.19 241.23 263.86 245.54 278.22 244.82 310.18 246.98 315.92 244.46 319.87 244.82 345.72 232.97 353.26 126.7 350.03 121.68 345.72 74.29 351.11 72.85 345.72 61.72 351.11 30.13 350.03 21.87 343.57 21.51 264.94 26.18 261.71 22.23 257.04 25.46 254.17 21.87 252.01 21.51 226.52 24.03 221.5 21.51 216.47 21.15 198.52 25.82 190.62 20.07 188.11 21.51 147.18 24.03 142.52 21.51 138.21 22.23 69.63 24.39 61.73 23.67 39.48"/><g class="cls-10"><g class="cls-7"><path class="cls-8" d="M1.92,81.5l2.62-.08c1.84,0,4.24.18,7.46.32l11.46.57c4.3,0,9.4-.5,14.83-.77l80.07-4.81,21.72-1.31,2.68-.16,1.34-.08c.7,0,1,0,1.46,0l5.3.24c3.51.06,7,.57,10.44.89s6.78.76,10,1.22,6.47.84,9.57,1.34l17.46,2.74L213.11,84c4.36.55,8.23,1.27,11.28,1.39l2.19.18.51,0h.4l1-.06a14,14,0,0,0,3-.34l2.28-.53.93,2.78-2.82.65a15.91,15.91,0,0,1-3.22.34l-1,.06-.25,0a2.76,2.76,0,0,1-.36,0l-.54,0-2.32-.18c-3.33-.17-7.09-.89-11.55-1.47l-14.74-2.4-17.42-2.8c-3.09-.51-6.27-.92-9.52-1.38s-6.57-.93-9.94-1.25-6.76-.84-10.29-.92l-5.3-.25-1.21-.06-1.34.07-2.68.15L118.5,79.2,38.42,83.71c-5.49.25-10.4.71-15,.71L11.92,83.8c-3.16-.15-5.75-.34-7.33-.35L2,83.52Z" transform="translate(14.21 23.45)"/><path class="cls-8" d="M10.58,168.85c9.24.32,18.48.67,27.72.88l27.72.72c18.48.54,37,.78,55.44,1.18l55.41,3.22c4.62.29,9.24.5,13.86.86l13.81,1.55,13.82,1.54A131.67,131.67,0,0,1,232.21,181l-.39,0,2.27-.14,2.21-.41.71,2.87-2.6.43-2.59.12h-.1l-.3-.06A134.34,134.34,0,0,0,218,181.41l-13.71-1.76-13.72-1.73c-4.6-.4-9.21-.65-13.81-1l-55.29-3.73c-18.48-.49-36.95-1.15-55.43-1.5l-27.73-.61c-9.24-.24-18.48-.34-27.72-.46Z" transform="translate(14.21 23.45)"/><path class="cls-8" d="M10.45,238.61l10.08,3.72,5.31,2c2,.59,4.09,1.22,6.35,1.91,4.56,1.3,9.59,3.05,15.31,4.35l8.84,2.2L61,253.91l4.85,1c6.57,1.32,13.46,2.9,20.69,4l11,1.83,11.3,1.47c7.6,1.12,15.37,1.56,23.12,2.26,3.89.22,7.77.27,11.63.41l2.9.1,1.4,0,1.45-.05,5.79-.22c7.68-.34,15.27-.45,22.56-1l39.85-3.35c5.85-.47,11.18-1.09,16-1.27l12.36-.67,10.77-.58.08,3.59L246,262l-12.28.61c-4.74.15-10.09.74-15.93,1.19l-40,3.18c-7.33.48-14.89.56-22.58.86-3.8.12-7.78.35-11.69.1s-7.85-.24-11.77-.47c-7.81-.75-15.66-1.23-23.29-2.39l-11.37-1.53-11-1.89c-7.26-1.13-14.18-2.75-20.78-4.1l-4.87-1-4.69-1.18-8.89-2.26C41.1,251.76,36,250,31.38,248.62l-6.42-2-5.3-2L9.59,240.89Z" transform="translate(14.21 23.45)"/></g><path class="cls-4" d="M1.92,79.34l2.62-.07c1.84,0,4.24.18,7.46.32l11.46.56c4.3,0,9.4-.49,14.83-.76l80.07-4.81,21.72-1.31,2.68-.16L144.1,73c.7,0,1,0,1.46,0l5.3.24c3.51.06,7,.57,10.44.88s6.78.77,10,1.22,6.47.85,9.57,1.35l17.46,2.74,14.73,2.33c4.36.55,8.23,1.27,11.28,1.4l2.19.17.51,0s.26,0,.15,0l.25,0,1-.06a14,14,0,0,0,3-.34l2.28-.53.93,2.79-2.82.65a16.66,16.66,0,0,1-3.22.34l-1,.06h-.25a1.62,1.62,0,0,1-.36,0l-.54,0-2.32-.19c-3.33-.16-7.09-.89-11.55-1.47l-14.74-2.39-17.42-2.8c-3.09-.51-6.27-.92-9.52-1.38s-6.57-.93-9.94-1.25-6.76-.84-10.29-.92l-5.3-.25-1.21-.06-1.34.07-2.68.16L118.5,77.05l-80.08,4.5c-5.49.25-10.4.72-15,.71l-11.53-.61c-3.16-.15-5.75-.34-7.33-.35L2,81.36Z" transform="translate(14.21 23.45)"/><path class="cls-4" d="M10.58,166.7c9.24.32,18.48.67,27.72.88L66,168.3c18.48.54,37,.77,55.44,1.18l55.41,3.22c4.62.29,9.24.5,13.86.86l13.8,1.55,13.82,1.54a131.43,131.43,0,0,1,13.86,2.24l-.39-.06,2.27-.13,2.21-.41.71,2.86-2.6.44-2.59.11h-.1l-.3-.07A134.34,134.34,0,0,0,218,179.25l-13.71-1.76-13.72-1.73c-4.6-.4-9.21-.65-13.81-1l-55.29-3.73c-18.48-.49-36.95-1.15-55.43-1.5l-27.73-.61c-9.24-.24-18.48-.33-27.72-.46Z" transform="translate(14.21 23.45)"/><path class="cls-4" d="M10.45,236.46l10.08,3.72,5.31,2c2,.58,4.09,1.23,6.35,1.91,4.56,1.3,9.59,3.06,15.31,4.35l8.84,2.21L61,251.76l4.85,1c6.57,1.33,13.46,2.91,20.69,4l11,1.83,11.3,1.46c7.6,1.12,15.37,1.56,23.12,2.27,3.89.22,7.77.27,11.63.41l2.9.09,1.4,0,1.45-.06,5.79-.21c7.68-.34,15.27-.46,22.56-1,14.58-1.23,28.18-2.38,39.85-3.35,5.85-.47,11.18-1.09,16-1.27l12.36-.67,10.77-.59.08,3.6-10.7.53-12.28.61c-4.74.15-10.09.74-15.93,1.18l-40,3.18c-7.33.49-14.89.56-22.58.87-3.8.11-7.78.34-11.69.09s-7.85-.23-11.77-.47c-7.81-.75-15.66-1.23-23.29-2.39l-11.37-1.53-11-1.89c-7.26-1.12-14.18-2.75-20.78-4.1l-4.87-1-4.69-1.18-8.89-2.26C41.1,249.6,36,247.8,31.38,246.46l-6.42-2-5.3-2L9.59,238.74Z" transform="translate(14.21 23.45)"/><g class="cls-11"><path class="cls-8" d="M10,36.73C4.11,38.7-1.82,43.3-1.82,49.88c0,3.9,1.87,9.38,7.33,15.33,4.56,5,19.82,5.24,27.06,5.24,0,0,67.05-5.24,141.32-5.24,21.18,0,42,2.88,62.82,6.47,2.16-9.16,2.71-18.79,3.25-28.48V44c-34.91,0-76.58,7.44-102,7.44-42.74,0-49.11-20.18-90.26-20.18A114.33,114.33,0,0,0,9.82,37.93Z" transform="translate(14.21 23.45)"/><path class="cls-8" d="M135.5,29.11c-1.05.69-2.88.39-2.88,1,0,1.78,1.84,4.54,6.82,4.54a23.75,23.75,0,0,0,11.49-3.4,13.86,13.86,0,0,0-9.59-3.74A10.5,10.5,0,0,0,135.5,29.11Z" transform="translate(14.21 23.45)"/><path class="cls-8" d="M164.91,2.39c14.4,28.8,77.19,28.88,88.32,30.15-16-24.07-23-36.58-52-36.58a126.18,126.18,0,0,0-35.55,5.23Z" transform="translate(14.21 23.45)"/><path class="cls-8" d="M129.11,121.15c-3.42-.32-6.88-.49-10.34-.49-14.85,0-36,4.85-36,9.47,0,5.87,26.73,7.59,33.75,7.59,1.37,0,43.4-1.28,43.4-9.17,0-4.25-6.77-4.66-10.32-5.6C142.76,121.13,135.92,121.78,129.11,121.15Z" transform="translate(14.21 23.45)"/><path class="cls-8" d="M2.64,129.12a6.8,6.8,0,0,0,2.57.46s65-20.67,120-20.67c40.21,0,79.93,5,119.39,12.31v-.72c1.8,9,.72,18,3.23,26.93-54.06.65-84,22.83-100.83,22.83a31.47,31.47,0,0,1-3.64-.21,60.78,60.78,0,0,0-7.28-.37c-3.61,0-7.24.19-10.83.19a47.6,47.6,0,0,1-12.05-1.26v.72c-47.14-19.85-52.71-27-84.3-27A218.64,218.64,0,0,0,2.64,144.2c-.38-3.77-1.36-7.42-1.36-11.12a16.31,16.31,0,0,1,.67-4.8Z" transform="translate(14.21 23.45)"/><path class="cls-8" d="M.12,219.59a33.85,33.85,0,0,0-10.77,9.34c3.48.22,6.94.32,10.39.32,16.19,0,30-1.92,48.73-1.92,18.12,0,36.24,1.44,54.36,1.44,10.92,0,43.15-.34,43.15-11.33,0-3.11-86.61-33-142.63-33A7.56,7.56,0,0,0,3,186.83c0,1.62.36,3.23.36,4.85A7.52,7.52,0,0,1,3,194.1h.36c16.88,1.08,34.84,0,50.62,7.54,2,.93,4.8,2.8,4.8,5.22,0,10.52-24.29,12-58.65,13.45Z" transform="translate(14.21 23.45)"/><path class="cls-8" d="M240,283.14c-4.39,0-9-.55-13.47-.55-24.1,0-71.92,8.76-71.92,12.23,0,6.69,73.57,11.67,80.93,11.67,25.28,0,16.93-1.64,14.51-7.2a73.88,73.88,0,0,0-9.69-16.51Z" transform="translate(14.21 23.45)"/></g><g class="cls-7"><path class="cls-8" d="M29,55c-1.49,0-11.9-.76-11.9-3.81a.74.74,0,0,1,.13-.41C20.82,46.21,26.75,45.05,32,44l1.34-.26c5.63-1.13,11.45-2.29,17.18-2.29,2.26,0,13.74.76,13.74,4.37C64.25,50.07,41,55,29,55ZM18.08,51.28C18.34,52.77,25.47,54,29,54c13.78,0,34.27-5.36,34.27-8.17,0-2.08-8.39-3.41-12.77-3.41-5.63,0-11.4,1.16-17,2.27L32.17,45C27.14,46,21.44,47.07,18.08,51.28Z" transform="translate(14.21 23.45)"/><path class="cls-8" d="M9.67,38.17s3.48-1.11,9.63-2.93l5.2-1.16a57.58,57.58,0,0,1,6.17-1.16L37.75,32l7.9-.38a101.15,101.15,0,0,1,17.75,1,91,91,0,0,1,19.19,5c6.47,2.38,12.9,5.39,19.65,7.84a96.8,96.8,0,0,0,21,5.24,110.25,110.25,0,0,0,21.7.54c7.19-.44,14.29-.59,21.09-1.42,13.63-1.39,26.38-2.61,37.32-3.6,5.47-.53,10.48-1,15-1.12l11.55-.5L240,44.22v1.06l-10,.43-11.52.49c-4.46.09-9.46.59-14.92,1.11-10.92,1-23.67,2.21-37.34,3.6-6.83.82-13.92,1-21.11,1.42a111.4,111.4,0,0,1-21.88-.55,98.64,98.64,0,0,1-21.26-5.3C95.08,44,88.65,41,82.24,38.63a90.27,90.27,0,0,0-19-5c-3.09-.49-6.12-.7-9-.93-3,0-5.85-.34-8.53-.11L37.84,33l-7,.93a53.94,53.94,0,0,0-6.1,1.15L19.59,36.2C13.46,38,10,39.13,10,39.13Z" transform="translate(14.21 23.45)"/><path class="cls-8" d="M5.83,65.57a9.45,9.45,0,0,0,1.33,1.1,9.34,9.34,0,0,0,1.43.81,18.62,18.62,0,0,0,3.2,1.2A44.51,44.51,0,0,0,18.6,70a116.19,116.19,0,0,0,14,.69h0c8.51-.64,17-1.15,25.54-1.62s17-1.06,25.56-1.34l25.56-1c4.27-.15,8.53-.37,12.79-.47l12.8-.2,25.59-.39,12.79-.2c4.29.06,8.53.25,12.8.37s8.52.59,12.78.91l6.39.56,6.35.82c4.23.59,8.48,1,12.68,1.75l12.64,2-.17,1-12.62-2c-4.2-.73-8.44-1.16-12.66-1.75L205,68.29l-6.36-.56c-4.24-.32-8.46-.88-12.73-.91l-12.77-.37-12.79.19L134.8,67l-12.79.2c-4.26.09-8.52.31-12.78.47l-25.56,1c-8.52.27-17,.85-25.54,1.32s-17,1-25.53,1.62h0A114.37,114.37,0,0,1,18.49,71a45.11,45.11,0,0,1-7-1.34,19,19,0,0,1-3.36-1.26,10.89,10.89,0,0,1-1.61-.92,9.8,9.8,0,0,1-1.37-1.15Z" transform="translate(14.21 23.45)"/><path class="cls-8" d="M142.14,41.43c-20.95,0-32.94-8.48-32.94-10.79,0-1.32,1.58-2.35,4.7-3.05,9.41-2.35,16.61-3.39,23.45-3.39,7.25,0,26.07,1.91,26.07,10.64C163.42,40.29,145.64,41.43,142.14,41.43Zm-4.79-16.28c-6.76,0-13.89,1-23.11,3.34l-.13,0c-3.68.82-4,1.83-4,2.12,0,1.6,11.13,9.84,32,9.84,5.78,0,20.33-1.68,20.33-5.64C162.47,26.93,143.87,25.15,137.35,25.15Z" transform="translate(14.21 23.45)"/><path class="cls-8" d="M139.44,35.86c-5.32,0-7.3-3.08-7.3-5,0-.73.81-.85,1.52-1a4.11,4.11,0,0,0,1.57-.45,11,11,0,0,1,6.11-1.67,14.24,14.24,0,0,1,9.93,3.88l.42.42-.5.32A24.43,24.43,0,0,1,139.44,35.86ZM133.1,31c.08,1.57,1.84,3.95,6.34,3.95a23.57,23.57,0,0,0,10.71-3,13.64,13.64,0,0,0-8.81-3.19,10,10,0,0,0-5.58,1.51,4.84,4.84,0,0,1-2,.6A4.53,4.53,0,0,0,133.1,31Z" transform="translate(14.21 23.45)"/><path class="cls-8" d="M165.36,2.85l.54.94a20.63,20.63,0,0,0,1.6,2.59A33.07,33.07,0,0,0,170.45,10,46.58,46.58,0,0,0,175,14.1a53.9,53.9,0,0,0,6.09,4,66.52,66.52,0,0,0,7.33,3.52,107.21,107.21,0,0,0,16.87,5.3,222.62,222.62,0,0,0,32.87,4.77l11,.75c2.65.17,4.18.33,4.18.33l-.12,1.08s-1.48-.17-4.13-.34l-11-.76a222,222,0,0,1-33-4.81,108.28,108.28,0,0,1-17-5.36A71.14,71.14,0,0,1,180.58,19a56.85,56.85,0,0,1-6.2-4,46.8,46.8,0,0,1-4.68-4.19,33,33,0,0,1-3.06-3.79A22.87,22.87,0,0,1,165,4.3c-.35-.61-.53-.94-.53-.94Z" transform="translate(14.21 23.45)"/><path class="cls-8" d="M4,108.9l4.82-.27c3.07-.18,7.41-.53,12.63-1.16s11.29-1.49,17.75-2.66c3.24-.53,6.55-1.3,9.93-2s6.79-1.51,10.18-2.4,6.78-1.77,10.07-2.79,6.51-2.08,9.63-3.12,6-2.21,8.8-3.43,5.35-2.36,7.63-3.63a65.61,65.61,0,0,0,6.15-3.62c1.79-1.14,3.13-2.41,4.35-3.32s1.86-1.94,2.44-2.51l.84-.91.67.52-.87.94c-.58.59-1.35,1.57-2.51,2.6s-2.63,2.24-4.44,3.39a64.91,64.91,0,0,1-6.22,3.67c-2.31,1.28-4.92,2.46-7.7,3.66s-5.77,2.31-8.85,3.47-6.34,2.2-9.67,3.13-6.7,1.93-10.1,2.81-6.83,1.64-10.2,2.42-6.72,1.43-10,2c-6.48,1.18-12.56,2.09-17.8,2.68s-9.63,1-12.69,1.19l-4.81.27Z" transform="translate(14.21 23.45)"/><path class="cls-8" d="M2.76,129.38l1.27.36,1.18.09-.14,0c4.85-1.47,9.69-2.91,14.58-4.18s9.76-2.63,14.68-3.75,9.82-2.43,14.78-3.37,9.89-2.08,14.86-3l15-2.46c5-.94,10-1.28,15-1.9s10-1.29,15.09-1.35l15.17-.65c5.07,0,10.1.27,15.15.38l15.14.45c5,.34,10.08.82,15.12,1.22l15.11,1.27,30.06,3.9,29.89,5-.19,1-29.85-5.05-30-3.9-15.07-1.27c-5-.4-10.05-.88-15.08-1.22l-15.14-.46c-5-.11-10.11-.37-15.12-.37l-15.11.63c-5,.06-10,.84-15,1.35s-10,1-15,1.89l-14.93,2.44c-5,.94-9.89,2-14.83,3s-9.84,2.22-14.75,3.37-9.79,2.43-14.66,3.73-9.73,2.71-14.55,4.17l-.08,0H5.21l-1.44-.12-1.26-.35Z" transform="translate(14.21 23.45)"/><path class="cls-8" d="M116.5,138.83c-.34,0-34.14-.72-34.14-8,0-5.25,22.69-9.86,36.41-9.86,3.4,0,6.89.16,10.38.49,2.31.22,4.68.28,7,.35a57.78,57.78,0,0,1,13.55,1.46c.66.17,1.43.33,2.24.49,3.73.76,8.38,1.71,8.38,5.48C160.29,137.81,116.94,138.83,116.5,138.83Zm2.27-17.06c-15.65,0-35.63,5.09-35.63,9.08,0,5.06,23.87,7.2,33.36,7.2,5.11,0,43-1.86,43-8.79,0-3.13-4.3-4-7.76-4.72-.82-.16-1.6-.32-2.27-.5a58.25,58.25,0,0,0-13.38-1.44c-2.3-.06-4.68-.13-7-.34C125.61,121.93,122.14,121.77,118.77,121.77Z" transform="translate(14.21 23.45)"/><path class="cls-8" d="M2.59,144.45l5-.49,5.68-.56c2.19-.28,4.69-.33,7.41-.43s5.65-.26,8.79-.31l9.77.33c3.38.35,6.91.7,10.44,1.27,3.47.88,7.1,1.39,10.49,2.71l5.16,1.73,5,2.05c3.32,1.31,6.52,2.75,9.61,4.15l16.91,7.59,16.59,7.2-.31.72-16.6-7.18-16.93-7.57c-3.09-1.39-6.28-2.82-9.58-4.14l-5-2-5.12-1.7c-3.37-1.31-7-1.81-10.39-2.67-3.49-.56-7-.9-10.31-1.25l-9.77-.31c-3.07.06-6,.22-8.71.32s-5.18.16-7.37.44l-5.68.56-4.95.5Z" transform="translate(14.21 23.45)"/><path class="cls-8" d="M143.4,170.36l1.2.07a21.7,21.7,0,0,0,3.36.06l2.43-.2,2.76-.54a67,67,0,0,0,6.58-1.86c4.78-1.55,10.26-3.68,16.19-5.85,3-1.08,6-2.2,9.17-3.24s6.36-2.09,9.59-3,6.5-1.78,9.71-2.62c3.25-.68,6.41-1.54,9.53-2s6.11-1.16,9-1.49,5.58-.83,8.1-1l6.88-.6,5.32-.2,4.63-.18v1l-4.61.17L238,149l-6.84.59c-2.52.16-5.21.6-8.07,1s-5.85.92-8.94,1.47-6.26,1.34-9.49,2-6.46,1.62-9.67,2.59-6.43,1.94-9.56,3-6.2,2.14-9.16,3.22c-5.92,2.14-11.41,4.28-16.23,5.83-2.4.81-4.65,1.4-6.67,1.87l-2.87.55-2.43.19a20.92,20.92,0,0,1-3.46-.07l-1.21-.07Z" transform="translate(14.21 23.45)"/><path class="cls-8" d="M3.38,194.34l19.06.85c2.86.24,6,.33,9.24.79,3.28.3,6.7,1,10.23,1.69l5.28,1.51c1.79.5,3.48,1.36,5.25,2a15,15,0,0,1,5,2.88,5.89,5.89,0,0,1,1.66,2.61,5.68,5.68,0,0,1-.26,3.09,8.81,8.81,0,0,1-4,4.4,23.57,23.57,0,0,1-5.31,2.28,71.1,71.1,0,0,1-10.86,2.29c-7.12,1-13.8,1.45-19.52,1.81-11.44.67-19.06,1-19.06,1l0-1s7.63-.28,19-.94c5.71-.36,12.37-.81,19.44-1.8a71.2,71.2,0,0,0,10.71-2.25,23.18,23.18,0,0,0,5.09-2.18A7.89,7.89,0,0,0,58,209.47a4.79,4.79,0,0,0,.23-2.53,4.85,4.85,0,0,0-1.38-2.14,14.09,14.09,0,0,0-4.75-2.7c-1.74-.66-3.4-1.5-5.16-2l-5.2-1.48c-3.49-.68-6.86-1.38-10.12-1.68-3.23-.46-6.34-.54-9.18-.79L3.33,195.3Z" transform="translate(14.21 23.45)"/><path class="cls-8" d="M3.36,184.65l3.46,0c2.27,0,5.58.16,9.79.45a317,317,0,0,1,34.64,4.58c14.23,2.6,30.68,6.38,48.08,11.27,8.7,2.44,17.63,5.16,26.62,8.21,4.49,1.53,9,3.13,13.46,4.94a35.27,35.27,0,0,1,6.59,3.24,1.42,1.42,0,0,1,.22.21.81.81,0,0,1,.22.41,2.15,2.15,0,0,1,0,.59,3.66,3.66,0,0,1-.15.93,6,6,0,0,1-.77,1.82,9.23,9.23,0,0,1-2.73,2.63c-4.25,2.66-9.13,3.58-13.85,4.4a131,131,0,0,1-14.3,1.37c-9.5.52-18.84,0-27.86-.18l-26-.68-12.05-.32L37.48,229,2.59,230.36l-3,.11L-3,230.39l-4.16-.13-3.45-.1,0-1,3.46.11,4.15.13,2.64.08,3-.11L37.45,228l11.27-.41,12.06.32,26,.7c9,.2,18.35.69,27.79.18a133.24,133.24,0,0,0,14.19-1.35c4.65-.81,9.5-1.76,13.46-4.25a8.3,8.3,0,0,0,2.45-2.34,5.51,5.51,0,0,0,.64-1.46,4.22,4.22,0,0,0,.13-.85c0-.08,0-.46,0-.3s-.06,0-.12-.08a36.66,36.66,0,0,0-6.32-3.07c-4.43-1.8-8.93-3.39-13.41-4.92-9-3-17.88-5.76-26.56-8.21-17.37-4.88-33.8-8.65-48-11.25a313.31,313.31,0,0,0-34.53-4.57c-4.2-.29-7.5-.42-9.74-.46l-3.46,0Z" transform="translate(14.21 23.45)"/><path class="cls-8" d="M244.39,198.55l-3.24.89c-1.06.22-2.37.48-3.87.72s-3.19.38-5,.39-3.86-.08-6-.11-4.33-.41-6.62-.61-4.64-.77-7-1.25-4.76-1.14-7.08-2-4.63-1.66-6.89-2.55-4.38-2-6.38-3.15-3.9-2.32-5.67-3.47a57.07,57.07,0,0,1-4.72-3.67,32.78,32.78,0,0,1-3.59-3.58A22,22,0,0,1,176,177a8.52,8.52,0,0,1-.94-2.43c-.11-.62-.16-1-.16-1h.87l.15.78a7.83,7.83,0,0,0,.84,2.17,21.47,21.47,0,0,0,2.25,3,32,32,0,0,0,3.5,3.48,55.13,55.13,0,0,0,4.64,3.6c1.75,1.13,3.58,2.36,5.61,3.41s4.14,2.08,6.31,3.1c2.23.87,4.46,1.82,6.81,2.5s4.67,1.33,7,1.92,4.67.92,6.92,1.22,4.42.6,6.54.59,4.08.23,5.89.11a48.25,48.25,0,0,0,4.93-.4c1.45-.24,2.7-.48,3.73-.69l3.25-.9Z" transform="translate(14.21 23.45)"/><path class="cls-8" d="M122.24,263.37l4.36-3.56c1.34-1.19,3.23-2.35,5.27-3.81s4.51-2.87,7.15-4.48,5.66-3,8.81-4.64c3.22-1.45,6.58-3.07,10.19-4.41,3.56-1.49,7.36-2.71,11.18-4C173.07,237.27,177,236,181,235s8-1.91,11.94-2.79c4-.73,7.87-1.53,11.69-2.05s7.5-1,11-1.45,6.84-.66,9.91-.82c6.16-.37,11.29-.46,14.89-.36l5.64.11,0,1.06-5.64-.12c-3.57-.1-8.68,0-14.8.36-3.07.15-6.37.49-9.87.81s-7.18.8-11,1.43-7.69,1.31-11.65,2c-3.93.88-7.94,1.69-11.89,2.78s-7.87,2.21-11.72,3.36c-3.8,1.32-7.58,2.54-11.11,4s-6.94,2.95-10.15,4.38c-3.12,1.58-6.11,3-8.74,4.6s-5.09,2.94-7.08,4.42-3.86,2.57-5.21,3.77l-4.36,3.56Z" transform="translate(14.21 23.45)"/><path class="cls-8" d="M.45,274.7l.84-.05h.09l.11,0a40.34,40.34,0,0,0,5,1,47.58,47.58,0,0,0,5.07.52,89.47,89.47,0,0,0,10.23.08,126.19,126.19,0,0,0,20.32-2.58,117.48,117.48,0,0,0,19.61-5.91A92,92,0,0,0,71,263.5c1.5-.81,3-1.67,4.39-2.6.7-.47,1.39-1,2-1.48a12,12,0,0,0,.9-.82,2.12,2.12,0,0,0,.29-.39c0-.08,0,0,.08.2s.12.07.08.08v-1a.86.86,0,0,1,.67.28.75.75,0,0,1,.06.8,2.73,2.73,0,0,1-.47.65,9.39,9.39,0,0,1-1,.92c-.69.55-1.4,1.06-2.12,1.54-1.45,1-3,1.83-4.47,2.65a92.82,92.82,0,0,1-9.38,4.37,119.47,119.47,0,0,1-19.77,6,126.11,126.11,0,0,1-20.48,2.62,89.36,89.36,0,0,1-10.35-.06,47.23,47.23,0,0,1-5.16-.53,38.09,38.09,0,0,1-5.12-1l.19,0-.85.06Z" transform="translate(14.21 23.45)"/><path class="cls-8" d="M238,307.68c-4.32,0-83.93-4.23-83.93-12.14,0-4.53,50.81-12.77,72.46-12.77,2.27,0,4.59.14,6.84.28s4.46.27,6.63.27v1.07c-2.2,0-4.48-.14-6.7-.27s-4.54-.28-6.77-.28c-24.67,0-70.21,8.66-71.39,11.74,0,5.87,70.79,11,82.86,11,5.47,0,10.57-.22,15.59-.66l.1,1.07C248.58,307.46,243.45,307.68,238,307.68Z" transform="translate(14.21 23.45)"/><path class="cls-8" d="M166.84,332.45c-4.67-2.16-9.29-4.52-13.75-6.8-9.61-4.9-19.55-10-30.34-13.28-2.15-.65-5-1.38-8.25-2.22-13-3.34-29.16-7.5-29.16-13.42,0-1.93,2.17-2.73,3.91-3.38l.78-.3c41.7-16.88,81.5-17.9,113.47-18.72,13.66-.35,25.47-.65,35.29-2.14l.16,1.07c-9.89,1.5-21.72,1.8-35.42,2.15-31.89.82-71.57,1.83-113.09,18.64l-.82.31c-1.5.56-3.2,1.19-3.2,2.37,0,5.09,17.07,9.48,28.35,12.38,3.29.84,6.13,1.57,8.29,2.24,10.89,3.32,20.87,8.42,30.51,13.34,4.47,2.28,9.08,4.63,13.72,6.78Z" transform="translate(14.21 23.45)"/><path class="cls-8" d="M87,332.76c-13.29-10-64.24-26.67-81.37-26.67h0a51.44,51.44,0,0,0-7.61.56l-.16-1.07A53.62,53.62,0,0,1,5.66,305h0c17.26,0,68.61,16.83,82,26.88Z" transform="translate(14.21 23.45)"/></g><path class="cls-12" d="M29,54.28c-1.49,0-11.9-.75-11.9-3.81a.74.74,0,0,1,.13-.41c3.58-4.57,9.52-5.73,14.77-6.74l1.32-.26C39,41.93,44.8,40.77,50.51,40.77c2.26,0,13.74.76,13.74,4.37C64.25,49.35,41,54.28,29,54.28ZM18.08,50.56c.26,1.49,7.39,2.75,10.93,2.75,13.78,0,34.27-5.35,34.27-8.17,0-2.08-8.39-3.41-12.77-3.41-5.62,0-11.38,1.16-17,2.27l-1.36.27C27.15,45.25,21.45,46.35,18.08,50.56Z" transform="translate(14.21 23.45)"/><path class="cls-12" d="M9.67,37.44s3.48-1.11,9.62-2.92l5.21-1.15a53,53,0,0,1,6.17-1.17l7.08-.94,7.9-.38A101.15,101.15,0,0,1,63.4,31.93a91,91,0,0,1,19.19,5c6.47,2.38,12.9,5.39,19.65,7.84a96.23,96.23,0,0,0,21,5.24,109.49,109.49,0,0,0,21.7.55c7.19-.45,14.29-.6,21.09-1.43,13.63-1.39,26.38-2.61,37.32-3.6,5.47-.53,10.48-1,15-1.12l11.55-.49L240,43.5v1.06l-10,.43-11.52.49c-4.46.1-9.46.59-14.92,1.11-10.92,1-23.67,2.21-37.35,3.6-6.82.83-13.91,1-21.1,1.42a111.4,111.4,0,0,1-21.88-.55,97.48,97.48,0,0,1-21.26-5.3c-6.8-2.47-13.23-5.49-19.64-7.85a90.07,90.07,0,0,0-19-5c-3.09-.5-6.12-.71-9-.94-3,0-5.85-.34-8.53-.11l-7.83.38-7,.94a51.87,51.87,0,0,0-6.1,1.14l-5.14,1.14C13.46,37.3,10,38.41,10,38.41Z" transform="translate(14.21 23.45)"/><path class="cls-12" d="M5.83,64.85A9.45,9.45,0,0,0,7.16,66a8.6,8.6,0,0,0,1.43.82A18.39,18.39,0,0,0,11.8,68a45.62,45.62,0,0,0,6.8,1.31,114.16,114.16,0,0,0,14,.69h0c8.51-.64,17-1.15,25.54-1.62s17-1.06,25.56-1.33l25.56-1c4.27-.16,8.53-.38,12.79-.48l12.8-.2,25.59-.39,12.79-.2,12.8.37c4.27,0,8.52.59,12.78.91l6.39.56,6.35.82c4.23.59,8.48,1,12.68,1.75l12.64,2-.17,1-12.62-2c-4.2-.73-8.44-1.16-12.66-1.75L205,67.57,198.66,67c-4.24-.32-8.46-.88-12.73-.9l-12.77-.38-12.79.2-25.57.38-12.79.2c-4.26.09-8.52.32-12.78.47L83.67,68c-8.52.27-17,.86-25.54,1.33s-17,1-25.53,1.62h0a118.44,118.44,0,0,1-14.08-.7,46.36,46.36,0,0,1-7-1.35,19,19,0,0,1-3.36-1.26,9.35,9.35,0,0,1-1.61-.92,10.48,10.48,0,0,1-1.37-1.14Z" transform="translate(14.21 23.45)"/><path class="cls-12" d="M142.14,40.71c-20.95,0-32.94-8.48-32.94-10.79,0-1.32,1.58-2.35,4.7-3.05,9.4-2.35,16.6-3.39,23.45-3.39,7.25,0,26.07,1.91,26.07,10.65C163.42,39.57,145.64,40.71,142.14,40.71Zm-4.79-16.28c-6.77,0-13.9,1-23.11,3.34l-.13,0c-3.67.82-4,1.83-4,2.12,0,1.6,11.13,9.84,32,9.84,5.78,0,20.33-1.68,20.33-5.63C162.47,26.21,143.87,24.43,137.35,24.43Z" transform="translate(14.21 23.45)"/><path class="cls-12" d="M139.44,35.14c-5.32,0-7.3-3.08-7.3-5,0-.73.81-.85,1.52-1a4.11,4.11,0,0,0,1.57-.45A11,11,0,0,1,141.34,27a14.24,14.24,0,0,1,9.93,3.88l.42.42-.5.32A24.43,24.43,0,0,1,139.44,35.14Zm-6.34-4.9c.08,1.57,1.84,3.95,6.34,3.95a23.57,23.57,0,0,0,10.71-3A13.66,13.66,0,0,0,141.34,28a10.07,10.07,0,0,0-5.58,1.51,4.86,4.86,0,0,1-2,.61A3.66,3.66,0,0,0,133.1,30.24Z" transform="translate(14.21 23.45)"/><path class="cls-12" d="M165.36,2.13l.54,1a22.19,22.19,0,0,0,1.6,2.59,33.07,33.07,0,0,0,2.95,3.63A44.13,44.13,0,0,0,175,13.38a56.3,56.3,0,0,0,6.09,4,68.36,68.36,0,0,0,7.33,3.51,107.21,107.21,0,0,0,16.87,5.3,222.62,222.62,0,0,0,32.87,4.77l11,.75c2.65.17,4.18.34,4.18.34l-.12,1.07s-1.48-.17-4.13-.33l-11-.76a224.63,224.63,0,0,1-33-4.81,108.29,108.29,0,0,1-17-5.37,69.19,69.19,0,0,1-7.43-3.57,55.41,55.41,0,0,1-6.2-4A44.46,44.46,0,0,1,169.7,10a33,33,0,0,1-3.06-3.79A22.93,22.93,0,0,1,165,3.59l-.53-.95Z" transform="translate(14.21 23.45)"/><path class="cls-12" d="M4,108.19l4.82-.28c3.07-.18,7.41-.53,12.63-1.16s11.29-1.49,17.75-2.66c3.24-.53,6.55-1.29,9.93-2s6.79-1.51,10.18-2.4S66.13,98,69.42,97s6.51-2.08,9.63-3.11,6-2.22,8.8-3.44,5.34-2.36,7.63-3.63a63.5,63.5,0,0,0,6.15-3.62c1.79-1.14,3.13-2.41,4.35-3.31s1.86-2,2.44-2.52l.84-.91.67.52-.87.94c-.58.59-1.35,1.56-2.51,2.6s-2.63,2.23-4.44,3.39a62.89,62.89,0,0,1-6.22,3.67C93.58,88.82,91,90,88.19,91.2s-5.77,2.3-8.85,3.46S73,96.86,69.67,97.8s-6.7,1.92-10.1,2.8-6.83,1.64-10.2,2.42-6.72,1.43-10,2c-6.48,1.18-12.56,2.09-17.8,2.69s-9.63,1-12.69,1.18l-4.81.27Z" transform="translate(14.21 23.45)"/><path class="cls-12" d="M2.76,128.67,4,129l1.18.09-.14,0c4.85-1.47,9.69-2.91,14.58-4.18s9.76-2.63,14.68-3.75,9.82-2.43,14.78-3.37,9.89-2.08,14.86-3l15-2.46c5-.94,10-1.28,15-1.9s10-1.29,15.09-1.35l15.17-.64c5.07,0,10.1.25,15.15.37l15.14.45c5,.34,10.08.82,15.12,1.22l15.11,1.27,30.06,3.9,29.89,5-.19,1-29.85-5-30-3.9-15.07-1.26c-5-.41-10.05-.89-15.08-1.23l-15.14-.45c-5-.12-10.11-.37-15.12-.38l-15.11.64c-5,0-10,.83-15,1.33s-10,1-15,1.9l-14.93,2.44c-5,.94-9.89,2-14.83,3s-9.84,2.22-14.75,3.37-9.79,2.44-14.66,3.74-9.73,2.7-14.55,4.16l-.08,0H5.21l-1.43-.12-1.27-.35Z" transform="translate(14.21 23.45)"/><path class="cls-12" d="M116.5,138.11c-.34,0-34.14-.72-34.14-8,0-5.25,22.69-9.86,36.41-9.86,3.4,0,6.89.17,10.38.49,2.31.22,4.68.28,7,.35a57.78,57.78,0,0,1,13.55,1.46c.66.17,1.42.33,2.23.49,3.74.77,8.39,1.72,8.39,5.49C160.29,137.1,116.94,138.11,116.5,138.11Zm2.27-17.06c-15.65,0-35.63,5.09-35.63,9.08,0,5.06,23.87,7.2,33.36,7.2,5.11,0,43-1.86,43-8.78,0-3.14-4.31-4-7.76-4.72-.83-.17-1.6-.33-2.27-.51a57.77,57.77,0,0,0-13.39-1.43c-2.29-.07-4.67-.14-7-.35C125.61,121.21,122.14,121.05,118.77,121.05Z" transform="translate(14.21 23.45)"/><path class="cls-12" d="M2.59,143.73l5-.49,5.68-.55c2.19-.28,4.69-.33,7.41-.44s5.65-.25,8.79-.3l9.77.32c3.38.35,6.91.71,10.44,1.28,3.47.87,7.09,1.39,10.49,2.7L65.28,148l5,2.05c3.32,1.32,6.52,2.76,9.61,4.15l16.91,7.6L113.36,169l-.3.72-16.6-7.18-16.92-7.57c-3.1-1.39-6.29-2.82-9.59-4.13l-5-2-5.12-1.71c-3.37-1.31-7-1.8-10.39-2.67-3.49-.55-7-.9-10.31-1.25l-9.77-.3c-3.07.05-6,.22-8.71.31s-5.18.16-7.37.44l-5.68.57-4.95.49Z" transform="translate(14.21 23.45)"/><path class="cls-12" d="M143.4,169.64l1.2.07a20.5,20.5,0,0,0,3.36.06l2.43-.19,2.76-.54a66.45,66.45,0,0,0,6.58-1.87c4.78-1.54,10.26-3.68,16.19-5.85,3-1.08,6-2.2,9.17-3.24s6.36-2.08,9.59-3,6.5-1.78,9.71-2.62c3.25-.68,6.4-1.54,9.53-2s6.11-1.16,9-1.49,5.58-.82,8.1-1l6.88-.6,5.32-.2,4.63-.18v1l-4.61.16-5.29.2-6.84.58c-2.52.15-5.21.6-8.07,1s-5.85.92-8.94,1.47-6.26,1.34-9.49,2-6.46,1.63-9.67,2.59-6.43,1.94-9.56,3-6.2,2.15-9.16,3.22c-5.92,2.15-11.41,4.28-16.23,5.83a65.42,65.42,0,0,1-6.67,1.87l-2.87.56-2.43.19a22.11,22.11,0,0,1-3.46-.07l-1.21-.07Z" transform="translate(14.21 23.45)"/><path class="cls-12" d="M3.38,193.62l19.06.85c2.86.24,6,.33,9.24.79s6.7,1,10.23,1.69l5.28,1.51c1.79.5,3.48,1.36,5.25,2a15,15,0,0,1,5,2.89A5.78,5.78,0,0,1,59.13,206a5.68,5.68,0,0,1-.26,3.09,8.89,8.89,0,0,1-4,4.4,24,24,0,0,1-5.31,2.28A71,71,0,0,1,38.73,218c-7.12,1-13.8,1.45-19.52,1.81-11.44.68-19.06,1-19.06,1l0-1s7.63-.28,19-.95c5.71-.36,12.37-.81,19.44-1.8a71.2,71.2,0,0,0,10.71-2.25,22.71,22.71,0,0,0,5.09-2.18A7.85,7.85,0,0,0,58,208.75a3.89,3.89,0,0,0-1.15-4.66,13.94,13.94,0,0,0-4.75-2.71c-1.74-.66-3.4-1.5-5.16-2l-5.2-1.48c-3.49-.68-6.86-1.37-10.12-1.68-3.23-.46-6.34-.54-9.18-.78l-19.06-.86Z" transform="translate(14.21 23.45)"/><path class="cls-12" d="M3.36,183.93l3.46,0c2.27,0,5.58.17,9.79.46A314.53,314.53,0,0,1,51.25,189c14.23,2.59,30.68,6.37,48.08,11.26,8.7,2.45,17.63,5.16,26.62,8.21,4.49,1.53,9,3.13,13.46,4.94a35.9,35.9,0,0,1,6.59,3.24c.15.18.29.15.44.62a2.13,2.13,0,0,1,0,.59,4,4,0,0,1-.15.93,5.88,5.88,0,0,1-.78,1.83,9.17,9.17,0,0,1-2.72,2.62c-4.25,2.66-9.13,3.58-13.85,4.41a133.45,133.45,0,0,1-14.3,1.36c-9.5.52-18.84,0-27.86-.17l-26-.69-12.05-.32-11.24.41L2.59,229.64l-3,.11L-3,229.67l-4.16-.13-3.45-.1,0-1,3.46.1,4.15.13,2.64.08,3-.11,34.87-1.38,11.27-.41,12.06.32,26,.7c9,.2,18.35.7,27.79.18a133.24,133.24,0,0,0,14.19-1.35c4.65-.8,9.5-1.76,13.46-4.25a8.27,8.27,0,0,0,2.45-2.33,5.71,5.71,0,0,0,.64-1.47,4.11,4.11,0,0,0,.13-.85c0-.09,0-.45,0-.3s-.06,0-.12-.08a37,37,0,0,0-6.32-3.07c-4.43-1.79-8.93-3.39-13.41-4.92-9-3-17.88-5.76-26.56-8.2-17.37-4.89-33.8-8.66-48-11.26a313.31,313.31,0,0,0-34.53-4.57c-4.2-.29-7.5-.42-9.74-.45l-3.46-.05Z" transform="translate(14.21 23.45)"/><path class="cls-12" d="M244.39,197.83l-3.25.89c-1,.22-2.36.48-3.86.72a47.94,47.94,0,0,1-5,.39c-1.86.13-3.86-.07-6-.11s-4.33-.41-6.63-.61-4.63-.76-7-1.25-4.76-1.13-7.08-2-4.63-1.66-6.89-2.55-4.38-2-6.38-3.15a63.69,63.69,0,0,1-5.67-3.48,55,55,0,0,1-4.72-3.66,33.68,33.68,0,0,1-3.59-3.58,22.75,22.75,0,0,1-2.33-3.17,8.67,8.67,0,0,1-.94-2.44c-.11-.62-.16-1-.16-1h.87l.15.78a7.83,7.83,0,0,0,.84,2.17,21.47,21.47,0,0,0,2.25,3,31.12,31.12,0,0,0,3.5,3.48,55.13,55.13,0,0,0,4.64,3.6c1.75,1.13,3.58,2.36,5.61,3.41s4.14,2.09,6.3,3.1,4.47,1.82,6.82,2.5,4.67,1.33,7,1.93,4.66.92,6.92,1.22,4.42.59,6.54.59,4.08.23,5.89.1a48.25,48.25,0,0,0,4.93-.4c1.45-.23,2.7-.48,3.73-.69l3.25-.9Z" transform="translate(14.21 23.45)"/><path class="cls-12" d="M122.24,262.66l4.36-3.57c1.34-1.19,3.23-2.34,5.27-3.81s4.51-2.86,7.15-4.48,5.66-3,8.81-4.64c3.22-1.44,6.58-3.07,10.19-4.41,3.56-1.49,7.36-2.71,11.18-4,3.87-1.16,7.79-2.42,11.78-3.39s8-1.91,11.94-2.79c4-.73,7.87-1.53,11.69-2.05s7.5-1,11-1.45,6.84-.66,9.91-.82c6.16-.37,11.29-.46,14.89-.36l5.64.11,0,1.06-5.64-.12c-3.57-.1-8.68,0-14.8.35-3.07.16-6.37.5-9.87.81s-7.18.81-11,1.44-7.69,1.31-11.65,2c-3.93.88-7.94,1.69-11.89,2.78s-7.87,2.21-11.72,3.36c-3.8,1.32-7.58,2.54-11.12,4s-6.93,2.94-10.14,4.38-6.11,3-8.74,4.6-5.09,2.94-7.08,4.42-3.86,2.56-5.21,3.77l-4.36,3.56Z" transform="translate(14.21 23.45)"/><path class="cls-12" d="M.45,274l.84-.05h.09l.11,0a38.54,38.54,0,0,0,5,1,45.13,45.13,0,0,0,5.07.53,87.24,87.24,0,0,0,10.23.08A125.07,125.07,0,0,0,42.07,273a118.39,118.39,0,0,0,19.61-5.9A94.33,94.33,0,0,0,71,262.78c1.5-.81,3-1.66,4.39-2.6.71-.47,1.39-1,2-1.48a9,9,0,0,0,.9-.83,1.59,1.59,0,0,0,.29-.38c0-.08,0,0,.08.2s.12.07.08.08v-1a.86.86,0,0,1,.67.28.75.75,0,0,1,.06.8,2.73,2.73,0,0,1-.47.65,12.13,12.13,0,0,1-1,.92c-.69.55-1.4,1.06-2.12,1.54-1.45,1-3,1.83-4.47,2.65A92.82,92.82,0,0,1,62.05,268a119.47,119.47,0,0,1-19.77,6,126.11,126.11,0,0,1-20.48,2.62,89.36,89.36,0,0,1-10.35-.06A47.23,47.23,0,0,1,6.29,276a38.09,38.09,0,0,1-5.12-1l.19,0-.84.06Z" transform="translate(14.21 23.45)"/><path class="cls-12" d="M238,307c-4.32,0-83.93-4.23-83.93-12.14,0-4.52,50.81-12.77,72.46-12.77,2.27,0,4.59.14,6.84.28s4.46.27,6.63.27v1.08c-2.2,0-4.48-.14-6.7-.28s-4.54-.28-6.77-.28c-24.68,0-70.22,8.66-71.39,11.74,0,5.87,70.79,11,82.86,11,5.37,0,10.61-.22,15.59-.66l.1,1.07C248.63,306.74,243.35,307,238,307Z" transform="translate(14.21 23.45)"/><path class="cls-12" d="M166.84,331.74c-4.66-2.16-9.28-4.52-13.74-6.8-9.61-4.91-19.55-10-30.35-13.28-2.15-.66-5-1.38-8.25-2.23-13-3.34-29.16-7.49-29.16-13.42,0-1.93,2.17-2.73,3.91-3.38l.79-.3c41.7-16.88,81.49-17.89,113.47-18.71,13.66-.35,25.46-.66,35.28-2.14l.16,1.06c-9.89,1.5-21.71,1.8-35.41,2.15-31.89.82-71.58,1.83-113.1,18.64-.25.1-.52.21-.81.31-1.43.53-3.21,1.19-3.21,2.37,0,5.09,17.06,9.48,28.35,12.38,3.29.84,6.13,1.57,8.29,2.24C134,314,143.93,319.05,153.59,324c4.45,2.27,9.06,4.63,13.7,6.78Z" transform="translate(14.21 23.45)"/><path class="cls-12" d="M87,332c-13.29-10-64.25-26.67-81.38-26.67a51.44,51.44,0,0,0-7.61.56l-.16-1.07a53.62,53.62,0,0,1,7.77-.57c17.27,0,68.63,16.84,82,26.88Z" transform="translate(14.21 23.45)"/><g class="cls-7"><path class="cls-8" d="M4.64,28.12C5.71,20,4.08,10.31,12.71,6.58,29.32-.6,38.85-3.74,52.64-3.74,64.35-3.74,75.71-2,87.07-2c0,0,13.2-.25,26.45-.25,78.53,0,121.15-4.1,121.15,22.33,0,.85-.62,1.62-1,1.62,0,0-10.74-6-39.73-6-4.73,0-7.53.07-14.23.07-25.22,0-50.19-1-75.26-1-21.79,0-43.66.78-65.84,3.7C27.24,19.91,16.49,28.12,4.64,28.12Z" transform="translate(14.21 23.45)"/></g><g class="cls-7"><path class="cls-8" d="M4.64,58.27C32.09,17.82,43.4,16,97.24,16c118.06,0,77.46,38.77,127,38.77,4.22,0,8.41-.23,12.45-.23,8.41,0,11.62-29.86,11.62-32.89,0-40.76-16.82-27-96.7-37.65-18.48-2.47-31.31-7.41-72.94-7.41-34,0-84.93,6.79-84.93,41.64,0,8.09.91,17.64,3.32,25.54C-1.26,49.11.33,54.5,4.64,58.27Z" transform="translate(14.21 23.45)"/></g><g class="cls-7"><path class="cls-8" d="M4.64,35.12C26.55,8.83,98.47-9.74,134.82-9.74c26.62,0,104.73,29.8,104.77,29.8,2.07,0,4.78-2.77,4.78-6.06,0-24.93-91-24.2-135.2-24.2C84.62-10.2-3.58-13-3.58,19.82c0,5.78,2.52,12.41,3.91,18Z" transform="translate(14.21 23.45)"/></g><g class="cls-7"><path class="cls-8" d="M76.26,24.35a3.62,3.62,0,0,0-.83,2.16,3.1,3.1,0,0,0,2.67,2.87c1.15,0,3.12-1.8,3.12-3.87,0-1.16-.77-3.59-1.85-3.59-1.25,0-3.26.62-3.26,1.86A1.35,1.35,0,0,0,76.26,24.35Z" transform="translate(14.21 23.45)"/></g><g class="cls-7"><path class="cls-8" d="M86,29.19a.37.37,0,0,0-.11.24c0,.39.81.8.81,1.19,0,.62,2.3-.18,2.3-1.42,0-.77-1.29-1.63-1.65-1.63-.63,0-.79,1.27-1.7,1.27Z" transform="translate(14.21 23.45)"/></g><g class="cls-7"><path class="cls-8" d="M87,21.65a2.38,2.38,0,0,0,2,2.37c1,0,2-1.63,2-2.9a2,2,0,0,0-1.39-2.06C88.66,19.06,87.83,21.25,87,21.65Z" transform="translate(14.21 23.45)"/></g><g class="cls-7"><path class="cls-8" d="M213.58,36.19a1.16,1.16,0,0,0-1.15-.67c-1.93,0-3.16,1.33-3.16,1.75,0,1.89,1.69,3.9,3.52,3.9,2.1,0,3.13-3.09,3.13-3.54,0-.61-1.18-2.76-2.94-2.76s-3.52,1.66-4.25,3.48Z" transform="translate(14.21 23.45)"/></g><g class="cls-7"><path class="cls-8" d="M219.5,34a1.22,1.22,0,0,0,0,.26c0,2.32,4.06,2.11,4.06-1.39,0-.57-.2-1.06-1-1.06a1.82,1.82,0,0,0-.38,0A3.25,3.25,0,0,0,219.5,34Z" transform="translate(14.21 23.45)"/></g><g class="cls-9"><path class="cls-13" d="M.87,286.6c14.52,6.22-23.36,5.08,109.92,28,12.66,2.18,24.65,4.1,36.76,4.1,23,0,80.52-9.33,103.32-13.26-2.19,18.59,1.27,30.84-29,35.53-23.18,3.6-44.66,7-67.28,7-45.23,0-89.32-5.74-134.59-9.7-13.55-1.18-26.82-7.39-26.82-19.05,0-3,3.69-20.12,8.61-30Z" transform="translate(14.21 23.45)"/></g><g class="cls-9"><path class="cls-13" d="M4.1,275.29a.41.41,0,0,0,0-.11s14.64,30,17.76,31.34c8,3.34,15.43,8.19,24.15,8.19,3.24,0,11.31-1.33,19-1.33l121.64,4.45c2.22.06,4.84.75,7.24.75s4.31-.61,5.69-2.9c8.45-14.1,21.55-22.59,35-31.24,6.1-3.92,2.55-6.45,2.55-.86l4.45,31a17.64,17.64,0,0,1,.21,2.7c0,26.93-54.26,26.19-90.71,26.19C18.62,343.49-1.44,338.06-1.44,307-1.44,296.25,2.13,285.94,4.1,275.29Z" transform="translate(14.21 23.45)"/></g><g class="cls-9"><path class="cls-13" d="M-3.44,308.68a3.88,3.88,0,0,0-.62,2c0,2,32.07,42.53,32.07,21.53,0-22.32-22.62-23-41.85-23h-.37Z" transform="translate(14.21 23.45)"/></g><g class="cls-9"><path class="cls-13" d="M238.35,315.14c-5.29,13.22-99.15,3.92-118,19.41,7.31,2.44,14.91,2.74,22.36,2.74,2.44,0,4.86,0,7.25,0,7.47,0,81.34-.91,88.82-17.74Z" transform="translate(14.21 23.45)"/></g><g class="cls-9"><path class="cls-13" d="M32.1,290.37c.86.42,1.76,1.94,2.88,1.94A2.81,2.81,0,0,0,37.15,290c0-.36-.47-2.9-2.77-2.9a2.52,2.52,0,0,0-.66.07C32.58,287.51,32.1,288.75,32.1,290.37Z" transform="translate(14.21 23.45)"/></g><g class="cls-9"><path class="cls-13" d="M42.33,288.75a1.12,1.12,0,0,0-.19.57c0,.57.83.61.83.87s-.27.18.35.18c1.62,0,2.47-.26,2.47-2.54,0-.8-.34-1.28-1.16-1.28S43.1,287.46,42.33,288.75Z" transform="translate(14.21 23.45)"/></g><g class="cls-9"><path class="cls-13" d="M38.56,282.83c0,.19-.05.62-.05,1.05h0c0,2.72,2.57.43,2.57-1.05a2.27,2.27,0,0,0-2.22-2.18c-1.08,0-1.91,1.21-1.91,2.72Z" transform="translate(14.21 23.45)"/></g><g class="cls-9"><path class="cls-13" d="M179.65,308.14c.86,4.31,4.06,2.59,4.06-.29,0-1.51-1-2.57-1.82-2.57-.54,0-2.31.73-2.31,2.19A3.39,3.39,0,0,0,179.65,308.14Z" transform="translate(14.21 23.45)"/></g><g class="cls-9"><path class="cls-13" d="M200.11,293.6c0,.55-.16,1.15-.16,1.64,0,.91.7,1.21,1.59,1.21,1.74,0,2.36-2.59,2.36-3s-.6-1-1.09-1.48C201.73,292,200.65,293.06,200.11,293.6Z" transform="translate(14.21 23.45)"/></g><g class="cls-9"><path class="cls-13" d="M198.5,308.68c-1.08,0,0,.57-.51,1.11,1.08,0,2.18-.5,2.18-1s-.37-1.69-1.5-1.69a2.14,2.14,0,0,0-.62.11Z" transform="translate(14.21 23.45)"/></g><g class="cls-9"><path class="cls-13" d="M218.42,265.6v.45c0,.85.17,1.86,1,1.86s1.88-1.93,1.88-2.29c0-1.12-1.72-.56-2.08-.56S218.42,265.06,218.42,265.6Z" transform="translate(14.21 23.45)"/></g></g><path class="cls-6" d="M7.61,320.12l-.4-78.63v-.07l.07,0L9.1,241h.05l17.69,5.73c5.93,1.81,11.9,3.5,17.84,5.26,3,.83,6,1.55,9,2.32l9,2.28,9.1,1.91c3,.61,6,1.35,9.11,1.84l9.18,1.51c3.06.48,6.11,1.06,9.19,1.38,6.16.7,12.29,1.64,18.48,2.14l9.26.8c3.09.24,6.17.58,9.27.72L154.86,268v.1l-18.6-.78c-3.1-.08-6.19-.37-9.28-.57L117.7,266c-6.2-.47-12.34-1.37-18.52-2-3.09-.3-6.15-.87-9.22-1.34l-9.2-1.46c-3.07-.47-6.09-1.19-9.14-1.78l-9.14-1.86-9-2.23c-3-.77-6-1.47-9-2.28l-8.94-2.64c-3-.9-6-1.74-8.91-2.7L8.86,241.87l.41,0-1.81.36.62-.76,0,39.31c0,13.11-.23,26.21-.33,39.32Z" transform="translate(14.21 23.45)"/><path class="cls-6" d="M7.85,227.85l-.61-24.77v0h0l2.51-5v.06l-2.51-5v0h0l.11-18.32v0l2.87-4.31,0,0h0l32.39.57,16.19.31c5.4.12,10.8.14,16.19.43l64.72,2.79v.11c-10.79-.3-21.6-.41-32.38-.87L75,172.5c-5.39-.26-10.79-.24-16.18-.32s-10.79-.1-16.18-.23l-32.37-.8.61-.33L8,175.11l.12-.39L7.89,193l-.06-.27,2.48,5,.12.26-.12.24-2.54,5,.05-.24L8,227.85Z" transform="translate(14.21 23.45)"/><path class="cls-6" d="M6.65,138.33l.82-15v0h0L9.76,119v.06l-2.51-4.31h0v0l.31-31.47v-.1h.09l17,1.66h0l122.79-7.13v.1c-10.22.76-20.43,1.64-30.66,2.29l-30.69,2-30.68,2c-10.23.7-20.47,1.11-30.71,1.68h-.12L7.56,84l.78-.7-.53,31.47-.07-.26,2.44,4.36.11.21-.11.2-2.35,4.19,0-.14-1.1,15Z" transform="translate(14.21 23.45)"/><path class="cls-6" d="M7.84,79.21l.1-33H8l2.14-7.91v0L9.38,16.74v0l0,0L13,10.59l0,0h0L36.09,6.41h.06l0,0,3.51,3.77-.08,0,63.07-3.11v.11L86.93,8.32c-5.24.41-10.5.67-15.75,1L39.66,11.12l-.38,0L39,10.85,35.47,7.11l.79.26L24.75,9.52l-11.55,2,.61-.43L10.2,17.16l.11-.45.53,21.55v.11l0,.09L8.6,46.35l0-.16c-.09,5.5-.07,11-.25,16.51L8,79.21Z" transform="translate(14.21 23.45)"/></g></g></g></svg>