<svg xmlns="http://www.w3.org/2000/svg" xmlns:xlink="http://www.w3.org/1999/xlink" viewBox="0 0 68 40.65"><defs><style>.cls-1{fill:none;}.cls-2{isolation:isolate;}.cls-3{fill:#ab9c8c;}.cls-3,.cls-8{mix-blend-mode:multiply;}.cls-4{fill:url(#linear-gradient);}.cls-5{clip-path:url(#clip-path);}.cls-6{mix-blend-mode:overlay;}.cls-7{fill:#ccc;}.cls-9{fill:url(#linear-gradient-2);}.cls-10{fill:#e6e6e6;}</style><linearGradient id="linear-gradient" x1="32.76" y1="0.92" x2="32.76" y2="34.63" gradientUnits="userSpaceOnUse"><stop offset="0" stop-color="#f09d42"/><stop offset="1" stop-color="#8c3811"/></linearGradient><clipPath id="clip-path" transform="translate(1.08 3.5)"><path class="cls-1" d="M8.26,34A8,8,0,0,1,.4,26c0-4.09,0-6.17-.08-8.19S.23,13.54.23,9.29A8.23,8.23,0,0,1,8.47,1.11C22.61.86,29.81.52,36.79.19s7.14.4,21.48.15c4.8-.08,7.41,4.43,7.17,8.81v.06c-.32,4.43-.34,6.4-.36,8.67,0,1.93,0,4.11-.27,8a8,8,0,0,1-8.19,7.6c-13.89.21-13.76-.58-20.57-.29S22.14,33.8,8.26,34Z"/></clipPath><linearGradient id="linear-gradient-2" x1="32.5" y1="4.87" x2="32.5" y2="28.65" gradientUnits="userSpaceOnUse"><stop offset="0" stop-color="#fbc93b"/><stop offset="0.25" stop-color="#f0b434"/><stop offset="0.76" stop-color="#d58021"/><stop offset="1" stop-color="#c76518"/></linearGradient></defs><g class="cls-2"><g id="Layer_2" data-name="Layer 2"><g id="Layer_1-2" data-name="Layer 1"><path class="cls-3" d="M8.62,35.45A8,8,0,0,1,.76,27.39c0-4.09,0-6.17-.08-8.2S.59,15,.59,10.73A8.24,8.24,0,0,1,8.83,2.54C23,2.3,30.17,2,37.14,1.63s7.15.4,21.49.15c4.8-.09,7.41,4.43,7.17,8.81v.06c-.32,4.42-.34,6.39-.36,8.67,0,1.93,0,4.11-.27,8A8,8,0,0,1,57,35c-13.88.21-13.75-.58-20.56-.29S22.5,35.24,8.62,35.45Z" transform="translate(1.08 3.5)"/><path class="cls-4" d="M8.25,33.84A7.94,7.94,0,0,1,.26,26c0-4.09-.12-6.17-.16-8.19S0,13.54,0,9.29c0-4.5,3.86-7.87,8.48-7.95C12,1.28,15.14,1.1,17.92,1c3.64-.1,6.7-.56,9.45-.66,3.5-.14,6.48-.18,9.41-.31C41.35-.16,43,.3,47.52.42,50,.49,53.25.73,58.28.64c4.8-.09,7.25,4.12,7,8.5,0,0,.23,0,.23.08-.32,4.42-.24,6.39-.26,8.66,0,1.93-.23,4.11-.45,8a8.1,8.1,0,0,1-8.19,7.69c-4.85.08-8,.07-10.31,0-4.34-.16-5.83-.66-10.26-.47-2.88.12-5.8.31-9.25.43-2.69.09-5.69.24-9.25.31C14.81,33.93,11.75,33.79,8.25,33.84Z" transform="translate(1.08 3.5)"/><g class="cls-5"><g class="cls-6"><path class="cls-7" d="M56.47,5.71,56.23,6c.85-2.54,3-5.92,5.66-5.92,2.82,0,5,5.14,5,5.53,0,2.05-4.45,3.21-6.62,3.21A5.68,5.68,0,0,1,55,6Z" transform="translate(1.08 3.5)"/></g><g class="cls-6"><path class="cls-7" d="M-.25,4.64C0,7.72,2.54,9.72,4,9.72c1.66,0,3-2.25,3-4.18,0-2.47-3-4.16-3.84-4.16-1.12,0-1.95,1.45-3,2.06Z" transform="translate(1.08 3.5)"/></g><g class="cls-6"><path class="cls-7" d="M0,3.44A6.67,6.67,0,0,0,5.06,8.07c.23,0,.43-.07.43-.32,0-2.94-4.31-5.41-4.67-5.41S.18,3.05,0,3.44Z" transform="translate(1.08 3.5)"/></g><g class="cls-6"><path class="cls-7" d="M63.42,1.88c-1.83.46-5.34,4.43-5.34,4.77s.71.85,1.31.85c1.93,0,5.06-4.61,5.06-6.28,0-1.45-4,2-4.63,2.82Z" transform="translate(1.08 3.5)"/></g><g class="cls-6"><path class="cls-7" d="M-.73,3.68C1.81,7.9,3.43,10,8.32,10c5.79,0,7.78-2.75,20-4.85C35.53,3.88,41-.39,47.22-3.5,27.13-1.27-1-5.73-1,5.54c0,.09,0,.19,0,.29Z" transform="translate(1.08 3.5)"/></g><g class="cls-8"><path class="cls-7" d="M6.45,23.07c-2.94,2-7.53,4.56-7.53,8.45,0,2.67,2.53,5.63,5.18,5.63,2.43,0,5.78-2.92,5.78-6.83,0-3.06-1.87-4.94-3.79-4.94a2.87,2.87,0,0,0-1.31.32Z" transform="translate(1.08 3.5)"/></g><g class="cls-8"><path class="cls-7" d="M54.8,27.25c0,.14,0,.28,0,.42,0,5.14,9,13.72,9,4.58,0-4-3.6-6.77-7.34-7.63Z" transform="translate(1.08 3.5)"/></g><g class="cls-8"><path class="cls-7" d="M7.41,26.42c-4.58,3.86-4.12,9,7.66,9,1.69,0,2.09-.15,3.1-.15,2.06,0,3.92.6,6,.6,0,0,3.92-.77,37.13-1.88-1.4-1.86-1.88-5.51-4.57-5.51-.71,0-1.28.55-2,.55a1,1,0,0,1-.35-.06c-5-1.88-23-4.05-26.34-4.05-7.74,0-16,.85-16,.85-.61,0-1.25-.05-1.89-.05A3.92,3.92,0,0,0,7.41,26.42Z" transform="translate(1.08 3.5)"/></g></g><path class="cls-9" d="M60.59,26.05c0,2.38-1.64,4.87-4,4.87-24.14-.52-24.14-.78-48.28-1.3A4.73,4.73,0,0,1,3.85,25c0-8.07-.24-8.07-.24-16.15,0-2.38,2.3-3.95,4.68-3.95,24.14.52,24.14.56,48.29,1.07,2.38,0,4.81,1.59,4.81,4C61.15,18,60.59,18,60.59,26.05Z" transform="translate(1.08 3.5)"/><g class="cls-6"><path class="cls-10" d="M56.58,30.52h0c-12.07-.25-18.11-.39-24.15-.53L8.29,29.46A4.78,4.78,0,0,1,3.49,25c0-4,0-6.09-.08-8.07s-.07-4-.07-8.08a5.08,5.08,0,0,1,5-4.67c12.07.26,18.2.55,24.13.84s12.07.57,24.15.83a3.92,3.92,0,0,1,4.21,4.07c-.18,5.33-.16,7.12-.12,10.09,0,1.48,0,3.33,0,6.07A4.17,4.17,0,0,1,56.58,30.52ZM8.3,4.52a4.69,4.69,0,0,0-4.6,4.3c0,4,0,6.09.07,8.07s.08,4,.08,8.08A4.41,4.41,0,0,0,8.3,29.1c12.07.25,18.11.39,24.15.53s12.07.28,24.14.53a3.82,3.82,0,0,0,3.76-4.11c0-2.74,0-4.59,0-6.07,0-3-.06-4.76.13-10.1a3.55,3.55,0,0,0-3.86-3.7c-12.09-.26-18.23-.55-24.17-.83S20.36,4.77,8.3,4.52Z" transform="translate(1.08 3.5)"/></g></g></g></g></svg>