<svg xmlns="http://www.w3.org/2000/svg" xmlns:xlink="http://www.w3.org/1999/xlink" viewBox="0 0 216.87 314.63"><defs><style>.cls-1{fill:none;}.cls-2{isolation:isolate;}.cls-3{mix-blend-mode:multiply;}.cls-4{fill:#ababab;}.cls-5{clip-path:url(#clip-path);}.cls-6{fill:#e0c080;}.cls-7{fill:#e0c181;}.cls-8{fill:#e1c182;}.cls-9{fill:#e1c283;}.cls-10{fill:#e1c285;}.cls-11{fill:#e1c386;}.cls-12{fill:#e2c387;}.cls-13{fill:#e2c488;}.cls-14{fill:#e2c589;}.cls-15{fill:#e2c58a;}.cls-16{fill:#e3c68c;}.cls-17{fill:#e3c68d;}.cls-18{fill:#e3c78e;}.cls-19{fill:#e3c78f;}.cls-20{fill:#e4c890;}.cls-21{fill:#e4c991;}.cls-22{fill:#e4c992;}.cls-23{fill:#e4ca94;}.cls-24{fill:#e5ca95;}.cls-25{fill:#e5cb96;}.cls-26{fill:#e5cb97;}.cls-27{fill:#e5cc98;}.cls-28{fill:#e6cd99;}.cls-29{fill:#e6cd9a;}.cls-30{fill:#e6ce9b;}.cls-31{fill:#e6ce9d;}.cls-32{fill:#e7cf9e;}.cls-33{fill:#e7cf9f;}.cls-34{fill:#e7d0a0;}.cls-35{fill:#e7d0a1;}.cls-36{fill:#e8d1a2;}.cls-37{fill:#e8d2a3;}.cls-38{fill:#e8d2a4;}.cls-39{fill:#e8d3a5;}.cls-40{fill:#e9d3a6;}.cls-41{fill:#e9d4a8;}.cls-42{fill:#e9d4a9;}.cls-43{fill:#e9d5aa;}.cls-44{fill:#ead5ab;}.cls-45{fill:#ead6ac;}.cls-46{fill:#ead6ad;}.cls-47{fill:#ead7ae;}.cls-48{fill:#ebd8af;}.cls-49{fill:#ebd8b0;}.cls-50{fill:#ebd9b1;}.cls-51{fill:#ebd9b2;}.cls-52{fill:#ecdab3;}.cls-53{fill:#ecdab4;}.cls-54{fill:#ecdbb5;}.cls-55{fill:#ecdbb7;}.cls-56{fill:#eddcb8;}.cls-57{fill:#eddcb9;}.cls-58{fill:#edddba;}.cls-59{fill:#edddbb;}.cls-60{fill:#eddebc;}.cls-61{fill:#eedebd;}.cls-62{fill:#eedfbe;}.cls-63{fill:#eedfbf;}.cls-64{fill:#eee0c0;}.cls-65{fill:#efe0c1;}.cls-66{fill:#efe1c2;}.cls-67{fill:#efe1c3;}.cls-68{fill:#efe2c4;}.cls-69{fill:#f0e2c5;}.cls-70{fill:#f0e3c6;}.cls-71{fill:#f0e3c7;}.cls-72{fill:#f0e4c8;}.cls-73{fill:#f0e4c9;}.cls-74{fill:#f1e5ca;}.cls-75{fill:#f1e5cb;}.cls-76{fill:#f1e6cc;}.cls-77{fill:#f1e6cd;}.cls-78{fill:#f2e7ce;}.cls-79{fill:#f2e7cf;}.cls-80{fill:#f2e8d0;}.cls-81{fill:#f2e8d1;}.cls-82{fill:#f2e9d2;}.cls-83{fill:#f3e9d3;}.cls-84{fill:#f3ead3;}.cls-85{fill:#f3ead4;}.cls-86{fill:#f3ebd5;}.cls-87{fill:#f3ebd6;}.cls-88{fill:#f4ecd7;}.cls-89{fill:#f4ecd8;}.cls-90{fill:#f4ecd9;}.cls-91{fill:#f4edda;}.cls-92{fill:#f4eddb;}.cls-93{fill:#f5eedc;}.cls-94{fill:#f5efdd;}.cls-95{fill:#f5efde;}.cls-96{fill:#f5efdf;}.cls-97{fill:#f6f0e0;}.cls-98{fill:#f6f0e1;}.cls-99{fill:#f6f1e1;}.cls-100{fill:#f6f1e2;}.cls-101{fill:#f6f1e3;}.cls-102{fill:#f6f2e4;}.cls-103{fill:#f7f2e4;}.cls-104{fill:#f7f2e5;}.cls-105{fill:#f7f3e6;}.cls-106{fill:#594224;}.cls-107{opacity:0.5;}.cls-108{opacity:0.2;}</style><clipPath id="clip-path" transform="translate(7.51 7.71)"><path class="cls-1" d="M.4,3.08,3.53,29.62l11.59-1.41L4,35.39l2.87,1.44-2.51,4C5.61,70.5,6.54,92.62,2.92,116.89l7.53,13.64-7.18.72,3.24,2.15L2.92,137l1,34.62,3.26,6.67-3.95,6.1c3.84,19.78,1.72,38.88,0,57.45l11.85,3.23L3.27,247.21l4.67,2.51-3.92,3-.75,18.23,7.54,3.94-7.89,5.39-.79,12.3,23.76-4-5-15.44L31.28,288.5c31.47-3.43,62.34-2.26,103,0l2.15-7.18,3.23,7.18,1.8-4.31,3.59,4.67h35.54l1.79-5.75,4,9.34,9,1.07s-1.65,5.46.72-2.15c1.86-6,.39-57,1.79-57.44l-18-2.16,18-1.07.36-19.75-5-11.13,4.66-5.38V169.66l-5.38-5,5.38-1.44c-1.2-13.52-.47-22.79,1.7-35.81l-6.73-1.17-1.43-17.59-3.59-2.16,7.9-1.79c-.53-18.2-.36-29.87,2.21-44.23L192.83,58l4.67-8.26-.71-22.26-6.11-3.23,7.54-4.67L201.45.21,169.5,3.8l-1.44,10.41L164.11,3.08C112.38,5.76,79.59,7.19,31.63,2.72L29.49,18,26.25,2,24.1,7,21.22,3.44l-2.44,5-4-5.84Z"/></clipPath></defs><g class="cls-2"><g id="Layer_2" data-name="Layer 2"><g id="Layer_1-2" data-name="Layer 1"><g class="cls-3"><polygon class="cls-4" points="7.51 10.84 10.64 38.88 22.54 37.14 12.41 44.28 16.32 45.55 13.59 49.74 15.05 75.25 12.82 100.97 10.59 126.99 19.72 140.48 13.14 142.28 16.98 143.4 11.52 146.87 13.45 181.72 17.66 188.5 12.36 194.5 14.22 223.23 13.3 251.98 24.75 255.34 13.99 258.52 19.26 259.77 13.61 262.77 13.19 281.13 22.58 285.04 14.34 290.9 12.22 303.34 36.63 298.66 31.37 283.35 42.14 298.49 67.96 298.13 93.88 295.3 119.83 296.61 145.44 298.46 147.84 291.94 151.58 298.06 152.8 295.63 156.47 299.24 191.71 298.46 193.27 294.34 196.85 303.83 207.21 303.17 206.39 301.67 208.58 273.64 208.8 246.4 189.71 243.15 209.96 243.1 210.28 222.55 204.01 211.66 209.61 206.47 208.37 181.92 203.49 176.77 209.48 175.56 210.17 139.99 204.37 138.4 202.23 121.1 199.27 119.24 207.8 117.91 205.41 94.96 209.99 72.64 205.03 70.42 207.52 62.13 206.83 40.21 201.73 36.57 210.51 32.57 212.59 12.54 179.92 14.24 179 26.08 174.53 15.3 148.04 14.72 121.09 15.39 94.17 14.18 67.23 13.73 39.49 10.78 38.18 27.53 34.43 10.83 32.67 15.72 29.38 10.67 27.12 17.55 22.79 11.83 7.51 10.84"/></g><g class="cls-5"><rect class="cls-6" x="7.91" y="7.92" width="201.05" height="298.78"/><polygon class="cls-6" points="108.44 6.92 209.96 6.92 209.96 307.69 6.91 307.69 6.91 6.92 108.44 6.92"/><polygon class="cls-7" points="108.44 6.92 209.96 6.92 209.96 307.69 6.91 307.69 6.91 6.92 108.44 6.92"/><polygon class="cls-8" points="108.44 6.92 209.96 6.92 209.96 307.69 6.91 307.69 6.91 6.92 108.44 6.92"/><polygon class="cls-9" points="108.44 6.92 209.96 6.92 209.96 307.69 6.91 307.69 6.91 6.92 108.44 6.92"/><polygon class="cls-10" points="108.44 6.92 209.96 6.92 209.96 307.69 6.91 307.69 6.91 6.92 108.44 6.92"/><polygon class="cls-11" points="108.44 6.92 209.96 6.92 209.96 307.69 6.91 307.69 6.91 6.92 108.44 6.92"/><polygon class="cls-12" points="108.44 6.92 209.96 6.92 209.96 307.69 6.91 307.69 6.91 6.92 108.44 6.92"/><polygon class="cls-13" points="108.44 6.92 209.96 6.92 209.96 307.69 6.91 307.69 6.91 6.92 108.44 6.92"/><polygon class="cls-14" points="108.44 6.92 209.96 6.92 209.96 307.69 6.91 307.69 6.91 6.92 108.44 6.92"/><polygon class="cls-15" points="108.44 6.92 209.96 6.92 209.96 307.69 6.91 307.69 6.91 6.92 108.44 6.92"/><polygon class="cls-16" points="108.44 6.92 209.96 6.92 209.96 307.69 6.91 307.69 6.91 6.92 108.44 6.92"/><polygon class="cls-17" points="108.44 6.92 209.96 6.92 209.96 307.69 6.91 307.69 6.91 6.92 108.44 6.92"/><polygon class="cls-18" points="108.44 6.92 209.96 6.92 209.96 307.69 6.91 307.69 6.91 6.92 108.44 6.92"/><polygon class="cls-19" points="108.44 6.92 209.96 6.92 209.96 307.69 6.91 307.69 6.91 6.92 108.44 6.92"/><polygon class="cls-20" points="108.44 6.92 209.96 6.92 209.96 307.69 6.91 307.69 6.91 6.92 108.44 6.92"/><polygon class="cls-21" points="108.44 6.92 209.96 6.92 209.96 307.69 6.91 307.69 6.91 6.92 108.44 6.92"/><polygon class="cls-22" points="108.44 6.92 209.96 6.92 209.96 307.69 6.91 307.69 6.91 6.92 108.44 6.92"/><polygon class="cls-23" points="108.44 6.92 209.96 6.92 209.96 307.69 6.91 307.69 6.91 6.92 108.44 6.92"/><polygon class="cls-24" points="108.44 6.92 209.96 6.92 209.96 307.69 6.91 307.69 6.91 6.92 108.44 6.92"/><polygon class="cls-25" points="108.44 6.92 209.96 6.92 209.96 307.69 6.91 307.69 6.91 6.92 108.44 6.92"/><polygon class="cls-26" points="108.44 6.92 209.96 6.92 209.96 307.69 6.91 307.69 6.91 6.92 108.44 6.92"/><polygon class="cls-27" points="108.44 6.92 209.96 6.92 209.96 307.69 6.91 307.69 6.91 6.92 108.44 6.92"/><polygon class="cls-28" points="108.44 6.92 209.96 6.92 209.96 307.69 6.91 307.69 6.91 6.92 108.44 6.92"/><polygon class="cls-29" points="108.44 6.92 209.96 6.92 209.96 307.69 6.91 307.69 6.91 6.92 108.44 6.92"/><path class="cls-30" d="M100.93-.79H202.45v297.6h4.75q-2.32,3.93-4.75,7.69V300H-.6v4.52q-2.43-3.76-4.75-7.69H-.6Z" transform="translate(7.51 7.71)"/><path class="cls-31" d="M100.93-.79H202.45v296.6h4q-2.3,3.92-4.72,7.65V300H.08v3.48q-2.41-3.73-4.72-7.65h4V-.79Z" transform="translate(7.51 7.71)"/><path class="cls-32" d="M100.93-.79H201.09v-6q2.4,3.72,4.69,7.6h-3.33v294h3.33q-2.28,3.89-4.69,7.59V300H.76v2.43q-2.4-3.71-4.69-7.59H-.6V.81H-3.93Q-1.65-3.07.76-6.79v6Z" transform="translate(7.51 7.71)"/><path class="cls-33" d="M100.93-.79h99.48V-5.74q2.4,3.69,4.66,7.54h-2.62v292h2.62q-2.26,3.85-4.66,7.54V300H1.44v1.38q-2.38-3.67-4.66-7.54H-.6V1.8H-3.22Q-1-2.06,1.44-5.74v5Z" transform="translate(7.51 7.71)"/><path class="cls-34" d="M100.93-.79h98.8v-3.9q4.76,7.32,9,15.32h-6.31V285h6.31q-4.29,8-9,15.31V300H2.12v.33Q-2.62,293-6.9,285H-.6V10.63H-6.9q4.26-8,9-15.32v3.9Z" transform="translate(7.51 7.71)"/><path class="cls-35" d="M100.93-.79h98.13V-3.65c3.13,4.85,6.13,9.93,8.95,15.21h-5.56v272.5H208c-2.82,5.29-5.82,10.36-8.95,15.21-1.57,2.42-3.18,4.79-4.82,7.09V300H7.62v6.38c-1.65-2.3-3.25-4.67-4.83-7.09Q-1.92,292-6.16,284.06H-.6V11.56H-6.16q4.25-7.92,9-15.21V-.79Z" transform="translate(7.51 7.71)"/><path class="cls-36" d="M100.93-.79h97.45V-2.6q4.68,7.22,8.89,15.11h-4.82V283.12h4.82q-4.2,7.88-8.89,15.1-2.34,3.61-4.79,7V300H8.26v5.29q-2.45-3.43-4.79-7Q-1.2,291-5.42,283.12H-.6V12.51H-5.42Q-1.2,4.62,3.47-2.6V-.79Z" transform="translate(7.51 7.71)"/><path class="cls-37" d="M100.93-.79H197.7v-.76q4.63,7.16,8.83,15h-4.08V282.18h4.08q-4.18,7.81-8.83,15c-1.55,2.38-3.13,4.72-4.75,7V300H8.9v4.19c-1.62-2.27-3.2-4.61-4.75-7q-4.65-7.17-8.83-15H-.6V13.45H-4.68q4.19-7.83,8.83-15v.76Z" transform="translate(7.51 7.71)"/><path class="cls-38" d="M100.93-.79H192.3V-7.45c1.61,2.26,3.19,4.57,4.72,6.94q4.62,7.13,8.77,14.9h-3.34V281.24h3.34Q201.65,289,197,296.13c-1.53,2.37-3.11,4.69-4.72,6.95V300H9.55v3.1q-2.42-3.39-4.72-6.95Q.22,289-3.94,281.24H-.6V14.39H-3.94Q.22,6.62,4.83-.51,7.14-4.07,9.55-7.45V-.79Z" transform="translate(7.51 7.71)"/><path class="cls-39" d="M100.93-.79h90.73V-6.36q2.4,3.36,4.69,6.9,4.58,7.07,8.71,14.79h-2.61v265h2.61q-4.12,7.72-8.71,14.79-2.29,3.54-4.69,6.9v-2H10.19v2c-1.59-2.24-3.16-4.54-4.68-6.9Q.92,288-3.21,280.29H-.6v-265H-3.21Q.92,7.62,5.51.54C7-1.82,8.6-4.12,10.19-6.36V-.79Z" transform="translate(7.51 7.71)"/><path class="cls-40" d="M100.93-.79H191V-5.26c1.59,2.22,3.14,4.51,4.66,6.85,3,4.67,5.91,9.58,8.64,14.68h-1.86V279.35h1.86Q200.22,287,195.67,294q-2.28,3.51-4.66,6.84V300H10.84v.9Q8.46,297.55,6.19,294q-4.56-7-8.65-14.69H-.6V16.27H-2.46c2.73-5.1,5.61-10,8.65-14.68C7.7-.75,9.25-3,10.84-5.26V-.79Z" transform="translate(7.51 7.71)"/><path class="cls-41" d="M100.93-.79h89.44V-4.17q2.35,3.32,4.62,6.8,4.51,7,8.59,14.58h-1.13v261.2h1.13Q199.52,286,195,293c-3,4.64-6.16,9.07-9.45,13.25V300H16.31v6.26C13,302.06,9.87,297.63,6.87,293S1,283.48-1.72,278.41H-.6V17.21H-1.72Q2.34,9.61,6.87,2.63q2.25-3.48,4.61-6.8V-.79Z" transform="translate(7.51 7.71)"/><path class="cls-42" d="M100.93-.79h88.79V-3.07q2.35,3.29,4.59,6.75,4.49,6.91,8.52,14.47h-.38V277.47h.38q-4,7.54-8.52,14.48t-9.38,13.15V300h-168v5.12Q12,298.88,7.54,292T-1,277.47H-.6V18.15H-1q4-7.54,8.52-14.47c1.5-2.31,3-4.56,4.59-6.75V-.79Z" transform="translate(7.51 7.71)"/><path class="cls-43" d="M100.93-.79h88.15V-2q2.32,3.27,4.55,6.69,4.45,6.87,8.47,14.38c1.33,2.5,2.63,5,3.89,7.64h-3.54V268.88H206q-1.89,3.9-3.89,7.65-4,7.5-8.47,14.37T184.33,304v-4H17.53v4q-4.86-6.18-9.31-13.06T-.24,276.53q-2-3.75-3.89-7.65H-.6V26.74H-4.13c1.25-2.6,2.55-5.14,3.89-7.64q4-7.5,8.46-14.38Q10.44,1.3,12.77-2V-.79Z" transform="translate(7.51 7.71)"/><path class="cls-44" d="M100.93-.79h82.78v-6.4q4.83,6.14,9.25,13A209.25,209.25,0,0,1,208.85,35.5h-6.4V260.12h6.4A208.71,208.71,0,0,1,193,289.85q-4.43,6.82-9.25,13V300H18.14v2.84q-4.82-6.15-9.24-13A206.71,206.71,0,0,1-7,260.12H-.6V35.5H-7A207.24,207.24,0,0,1,8.9,5.77q4.41-6.81,9.24-13v6.4Z" transform="translate(7.51 7.71)"/><path class="cls-45" d="M100.93-.79H183.1V-6Q187.89,0,192.28,6.82a206.7,206.7,0,0,1,15.77,29.51h-5.6v223h5.6a207.78,207.78,0,0,1-15.77,29.51q-4.38,6.76-9.18,12.87V300H18.75v1.7q-4.78-6.1-9.17-12.87A206.81,206.81,0,0,1-6.2,259.3H-.6v-223H-6.2A205.73,205.73,0,0,1,9.58,6.82Q14,.06,18.75-6V-.79Z" transform="translate(7.51 7.71)"/><path class="cls-46" d="M100.93-.79h81.56V-4.91q4.75,6.06,9.11,12.78a205.19,205.19,0,0,1,15.66,29.29h-4.81V258.47h4.81a205.19,205.19,0,0,1-15.66,29.29q-4.35,6.72-9.11,12.77V300H19.36v.55q-4.75-6-9.11-12.77A205.19,205.19,0,0,1-5.41,258.47H-.6V37.16H-5.41A205.19,205.19,0,0,1,10.25,7.87Q14.6,1.15,19.36-4.91V-.79Z" transform="translate(7.51 7.71)"/><path class="cls-47" d="M100.93-.79h80.95v-3q4.73,6,9,12.68A203.18,203.18,0,0,1,206.46,38h-4V257.64h4a202.65,202.65,0,0,1-15.54,29.07q-4.32,6.68-9,12.68c-1.57,2-3.17,3.95-4.8,5.83V300H24.78v5.24c-1.64-1.88-3.24-3.83-4.81-5.83q-4.71-6-9-12.68A202.65,202.65,0,0,1-4.61,257.64h4V38h-4A203.18,203.18,0,0,1,10.93,8.91q4.32-6.66,9-12.68v3Z" transform="translate(7.51 7.71)"/><path class="cls-48" d="M100.93-.79h80.34V-2.62q4.68,6,9,12.58a201.67,201.67,0,0,1,15.43,28.85h-3.22v218h3.22a201.26,201.26,0,0,1-15.43,28.86q-4.28,6.61-9,12.58-2.34,3-4.77,5.79V300H25.35V304q-2.43-2.81-4.77-5.79-4.68-6-9-12.58A201.22,201.22,0,0,1-3.81,256.81H-.6v-218H-3.81A201.64,201.64,0,0,1,11.61,10q4.29-6.62,9-12.58V-.79Z" transform="translate(7.51 7.71)"/><path class="cls-49" d="M100.93-.79h79.73v-.69q4.65,5.91,8.9,12.48a199.79,199.79,0,0,1,15.31,28.64h-2.42V256h2.42a199.13,199.13,0,0,1-15.31,28.63q-4.25,6.57-8.9,12.49-2.31,3-4.73,5.74V300h-150v2.87c-1.61-1.86-3.18-3.77-4.73-5.74q-4.65-5.91-8.9-12.49A201.13,201.13,0,0,1-3,256H-.6V39.64H-3A201.8,201.8,0,0,1,12.29,11q4.25-6.55,8.9-12.48v.69Z" transform="translate(7.51 7.71)"/><path class="cls-50" d="M100.93-.79h74.42V-6c1.6,1.84,3.17,3.75,4.7,5.7q4.6,5.86,8.84,12.39a200.13,200.13,0,0,1,15.19,28.41h-1.63v214.7h1.63a199.59,199.59,0,0,1-15.19,28.41q-4.23,6.53-8.84,12.4-2.3,2.92-4.7,5.7V300H26.5v1.69q-2.4-2.78-4.7-5.7-4.61-5.88-8.83-12.4A198.59,198.59,0,0,1-2.22,255.16H-.6V40.46H-2.22A199.12,199.12,0,0,1,13,12.05Q17.18,5.54,21.8-.34C23.33-2.29,24.9-4.2,26.5-6V-.79Z" transform="translate(7.51 7.71)"/><path class="cls-51" d="M100.93-.79h73.85V-4.86q2.39,2.75,4.66,5.66,4.58,5.82,8.77,12.3a197.58,197.58,0,0,1,15.07,28.19h-.83v213h.83a197.16,197.16,0,0,1-15.07,28.2,156.73,156.73,0,0,1-18.27,23.26V300h-138v5.81a156.07,156.07,0,0,1-18.27-23.26,198.17,198.17,0,0,1-15.07-28.2H-.6v-213h-.83A198.59,198.59,0,0,1,13.64,13.1Q17.84,6.63,22.41.8C23.93-1.14,25.49-3,27.07-4.86V-.79Z" transform="translate(7.51 7.71)"/><path class="cls-52" d="M100.93-.79h73.28V-3.67c1.57,1.81,3.11,3.69,4.62,5.61,3,3.85,5.93,7.93,8.7,12.2a197.2,197.2,0,0,1,15,28h0V253.51h0a197.08,197.08,0,0,1-15,28,154.83,154.83,0,0,1-18.13,23.08V300H32.45v4.58a154.83,154.83,0,0,1-18.13-23.08,196,196,0,0,1-14.95-28h0V42.12h0a196.16,196.16,0,0,1,15-28C17.09,9.87,20,5.79,23,1.94c1.51-1.92,3.06-3.8,4.63-5.61V-.79Z" transform="translate(7.51 7.71)"/><path class="cls-53" d="M100.93-.79h67.94V-7.71a154.06,154.06,0,0,1,18,22.9A193.12,193.12,0,0,1,201.69,43q3.27,7.48,6.09,15.46h-5.33v178.8h5.33q-2.81,8-6.09,15.47a193.65,193.65,0,0,1-14.84,27.76,154.06,154.06,0,0,1-18,22.9V300H33v3.36a154.72,154.72,0,0,1-18-22.9A194.65,194.65,0,0,1,.16,252.68q-3.28-7.49-6.08-15.47H-.6V58.41H-5.92Q-3.13,50.45.16,43A194.11,194.11,0,0,1,15,15.19,154.72,154.72,0,0,1,33-7.71V-.79Z" transform="translate(7.51 7.71)"/><path class="cls-54" d="M100.93-.79h67.4v-5.7a152.27,152.27,0,0,1,17.84,22.73A192.6,192.6,0,0,1,200.9,43.78c2.16,4.94,4.18,10.07,6,15.34h-4.49V236.51h4.49q-2.79,7.91-6,15.34a193.14,193.14,0,0,1-14.73,27.54,152.17,152.17,0,0,1-17.84,22.72V300H33.52v2.13a152.82,152.82,0,0,1-17.84-22.72A192.11,192.11,0,0,1,1,251.85q-3.25-7.42-6-15.34H-.6V59.12H-5.08c1.85-5.27,3.87-10.4,6-15.34A191.57,191.57,0,0,1,15.68,16.24,152.92,152.92,0,0,1,33.52-6.49v5.7Z" transform="translate(7.51 7.71)"/><path class="cls-55" d="M100.93-.79h66.86V-5.26A152.15,152.15,0,0,1,185.5,17.28,191.56,191.56,0,0,1,200.1,44.6q3.22,7.36,6,15.22h-3.64v176h3.64q-2.76,7.84-6,15.22a191.56,191.56,0,0,1-14.6,27.32,151.63,151.63,0,0,1-17.71,22.54V300H34.05v.9a151.59,151.59,0,0,1-17.7-22.54A191.56,191.56,0,0,1,1.75,251q-3.22-7.36-6-15.22H-.6v-176H-4.24q2.76-7.84,6-15.22a191.56,191.56,0,0,1,14.6-27.32A152.1,152.1,0,0,1,34.05-5.26V-.79Z" transform="translate(7.51 7.71)"/><path class="cls-56" d="M100.93-.79h66.33V-4a150.35,150.35,0,0,1,17.56,22.36,190.05,190.05,0,0,1,14.49,27.1q3.19,7.31,5.94,15.1h-2.8V235.1h2.8q-2.75,7.78-5.94,15.1a189.93,189.93,0,0,1-14.49,27.09,151,151,0,0,1-17.56,22.37c-1.57,1.64-3.18,3.23-4.81,4.76V300H39.4v4.44c-1.62-1.53-3.23-3.12-4.81-4.76A151,151,0,0,1,17,277.29,190.94,190.94,0,0,1,2.54,250.2q-3.19-7.32-5.94-15.1H-.6V60.53H-3.4q2.74-7.78,5.94-15.1A190.05,190.05,0,0,1,17,18.33,150.35,150.35,0,0,1,34.59-4V-.79Z" transform="translate(7.51 7.71)"/><path class="cls-57" d="M100.93-.79h65.79v-2a148.46,148.46,0,0,1,17.42,22.18c10.65,16.43,19.26,36,25.22,57.73h-6.91v141.4h6.91c-6,21.73-14.57,41.3-25.22,57.74a149,149,0,0,1-17.42,22.18q-2.34,2.44-4.77,4.72V300H39.9v3.17c-1.61-1.52-3.21-3.09-4.77-4.72a149.62,149.62,0,0,1-17.42-22.18c-10.65-16.44-19.27-36-25.22-57.74H-.6V77.11H-7.51c5.95-21.73,14.57-41.3,25.22-57.73A149.11,149.11,0,0,1,35.13-2.8v2Z" transform="translate(7.51 7.71)"/><path class="cls-58" d="M100.93-.79h65.26v-.79a148.2,148.2,0,0,1,17.27,22c10.57,16.3,19.11,35.71,25,57.27h-6V217.94h6c-5.91,21.55-14.45,41-25,57.27a148.1,148.1,0,0,1-17.27,22,121,121,0,0,1-9.63,9V300H45.29v6.24a121,121,0,0,1-9.63-9,148.76,148.76,0,0,1-17.27-22C7.83,258.9-.72,239.49-6.63,217.94h6V77.69h-6c5.91-21.56,14.46-41,25-57.27a148.86,148.86,0,0,1,17.27-22v.79Z" transform="translate(7.51 7.71)"/><path class="cls-59" d="M100.93-.79h60V-5c1.58,1.49,3.16,3,4.69,4.65a146.49,146.49,0,0,1,17.14,21.82c10.47,16.16,19,35.41,24.81,56.79h-5.15v139.1h5.15c-5.86,21.38-14.34,40.63-24.81,56.8A146.91,146.91,0,0,1,165.65,296a119,119,0,0,1-9.54,8.95V300H45.74v4.94A119,119,0,0,1,36.2,296a146.21,146.21,0,0,1-17.13-21.81C8.59,258,.12,238.74-5.74,217.36H-.6V78.26H-5.74C.12,56.88,8.59,37.63,19.07,21.47A145.79,145.79,0,0,1,36.2-.35C37.74-2,39.3-3.51,40.9-5V-.79Z" transform="translate(7.51 7.71)"/><path class="cls-60" d="M100.93-.79h59.53V-3.73c1.58,1.48,3.13,3,4.66,4.61a146.28,146.28,0,0,1,17,21.63c10.38,16,18.79,35.13,24.6,56.33h-4.26v138h4.26c-5.81,21.2-14.22,40.29-24.6,56.32a146.38,146.38,0,0,1-17,21.64,120.6,120.6,0,0,1-9.47,8.87V300H46.2v3.64a118.75,118.75,0,0,1-9.46-8.87,145.77,145.77,0,0,1-17-21.64C9.36,257.08,1,238-4.86,216.79H-.6V78.84H-4.86C1,57.64,9.36,38.55,19.74,22.51A145.67,145.67,0,0,1,36.74.88c1.52-1.6,3.08-3.13,4.66-4.61V-.79Z" transform="translate(7.51 7.71)"/><path class="cls-61" d="M100.93-.79h54.26V-6.7a120.66,120.66,0,0,1,9.39,8.8,144.34,144.34,0,0,1,16.85,21.46c10.3,15.9,18.64,34.83,24.4,55.86h-3.38V216.21h3.38c-5.76,21-14.1,40-24.4,55.85a143.83,143.83,0,0,1-16.85,21.46,116.93,116.93,0,0,1-9.39,8.8V300H46.66v2.34a116.93,116.93,0,0,1-9.39-8.8,144.48,144.48,0,0,1-16.85-21.46C10.12,256.17,1.78,237.23-4,216.21H-.6V79.42H-4c5.76-21,14.1-40,24.4-55.86A145,145,0,0,1,37.27,2.1a120.66,120.66,0,0,1,9.39-8.8V-.79Z" transform="translate(7.51 7.71)"/><path class="cls-62" d="M100.93-.79h53.81V-5.4A118.57,118.57,0,0,1,164,3.33a142.45,142.45,0,0,1,16.71,21.28C191,40.37,199.23,59.15,204.94,80h-2.49V215.63h2.49c-5.71,20.85-14,39.62-24.19,55.39A142.36,142.36,0,0,1,164,292.29a116.72,116.72,0,0,1-9.3,8.73v-1H47.12v1a116.83,116.83,0,0,1-9.31-8.73A143,143,0,0,1,21.1,271C10.88,255.25,2.62,236.48-3.1,215.63H-.6V80H-3.1c5.72-20.84,14-39.62,24.2-55.38A143.1,143.1,0,0,1,37.81,3.33,118.69,118.69,0,0,1,47.12-5.4V-.79Z" transform="translate(7.51 7.71)"/><path class="cls-63" d="M100.93-.79h53.35V-4.1a118.5,118.5,0,0,1,9.23,8.66,143,143,0,0,1,16.57,21.09c10.12,15.63,18.32,34.25,24,54.91h-1.61v134.5h1.61c-5.66,20.67-13.86,39.28-24,54.91a141.91,141.91,0,0,1-16.57,21.09,116.62,116.62,0,0,1-9.23,8.66q-2.39,2-4.82,3.81V300H52.4v3.55c-1.64-1.21-3.24-2.48-4.83-3.81a116.62,116.62,0,0,1-9.23-8.66A141.21,141.21,0,0,1,21.78,270c-10.13-15.63-18.32-34.24-24-54.91H-.6V80.56H-2.21c5.67-20.66,13.86-39.28,24-54.91A142.24,142.24,0,0,1,38.34,4.56,118.5,118.5,0,0,1,47.57-4.1V-.79Z" transform="translate(7.51 7.71)"/><path class="cls-64" d="M100.93-.79h52.89v-2A114.5,114.5,0,0,1,163,5.78,141.14,141.14,0,0,1,179.4,26.7c10,15.5,18.16,34,23.78,54.44h-.73V214.48h.73c-5.62,20.49-13.74,39-23.78,54.44s-22,28-35.28,36.71V300H57.73v5.65C44.45,297,32.5,284.42,22.46,268.92S4.29,235-1.33,214.48H-.6V81.14h-.73C4.29,60.65,12.42,42.2,22.46,26.7A139.79,139.79,0,0,1,38.88,5.78,114.5,114.5,0,0,1,48-2.79v2Z" transform="translate(7.51 7.71)"/><path class="cls-65" d="M100.93-.79h52.44v-.7A116,116,0,0,1,162.44,7a139.86,139.86,0,0,1,16.28,20.74c9.95,15.36,18,33.65,23.57,54a239.93,239.93,0,0,1,6.42,31.87h-6.26V182h6.26a239.76,239.76,0,0,1-6.42,31.88c-5.56,20.31-13.62,38.6-23.57,54s-21.81,27.79-35,36.39V300H58.1v4.29c-13.16-8.6-25-21-35-36.39s-18-33.66-23.57-54A238.18,238.18,0,0,1-6.85,182H-.6V113.59H-6.85A238.34,238.34,0,0,1-.44,81.72c5.56-20.32,13.62-38.61,23.57-54A139.25,139.25,0,0,1,39.42,7a112.58,112.58,0,0,1,9.07-8.5v.7Z" transform="translate(7.51 7.71)"/><path class="cls-66" d="M100.93-.79h42.44V-7.28c13,8.52,24.8,20.84,34.67,36.07s17.85,33.37,23.37,53.5a237.47,237.47,0,0,1,6.35,31.6h-5.31v67.85h5.31a237.64,237.64,0,0,1-6.35,31.59c-5.52,20.14-13.51,38.27-23.37,53.5s-21.62,27.55-34.67,36.07V300H58.47v2.92c-13-8.52-24.79-20.84-34.66-36.07S6,233.47.44,213.33a239.24,239.24,0,0,1-6.36-31.59H-.6V113.89H-5.92A239.07,239.07,0,0,1,.44,82.29C6,62.16,13.94,44,23.81,28.79S45.43,1.24,58.47-7.28V-.79Z" transform="translate(7.51 7.71)"/><path class="cls-67" d="M100.93-.79H143V-5.92c12.94,8.45,24.58,20.66,34.36,35.76C196.92,60,209,101.74,209,147.81s-12.1,87.79-31.66,118c-9.78,15.1-21.42,27.32-34.36,35.76V300H58.85v1.56c-12.93-8.44-24.58-20.66-34.36-35.76-19.56-30.18-31.66-71.9-31.66-118S4.93,60,24.49,29.84C34.27,14.74,45.92,2.53,58.85-5.92V-.79Z" transform="translate(7.51 7.71)"/><path class="cls-68" d="M100.93-.79h41.7V-4.55C155.44,3.81,167,15.92,176.69,30.88c19.38,29.93,31.37,71.27,31.37,116.93s-12,87-31.37,116.93c-9.7,15-21.24,27.07-34.06,35.44V300H59.22v.2c-12.82-8.37-24.36-20.48-34-35.44C5.78,234.81-6.21,193.47-6.21,147.81s12-87,31.38-116.93c9.69-15,21.23-27.07,34.05-35.43V-.79Z" transform="translate(7.51 7.71)"/><path class="cls-69" d="M100.93-.79h41.33v-2.4C155,5.1,166.4,17.1,176,31.93c19.21,29.66,31.09,70.63,31.09,115.88S195.22,234,176,263.69c-9.61,14.83-21,26.83-33.75,35.12a85.24,85.24,0,0,1-9.76,5.51V300H69.35v4.34a85.12,85.12,0,0,1-9.75-5.51c-12.71-8.29-24.15-20.29-33.75-35.12C6.63,234-5.25,193.06-5.25,147.81S6.63,61.59,25.85,31.93C35.45,17.1,46.89,5.1,59.6-3.19v2.4Z" transform="translate(7.51 7.71)"/><path class="cls-70" d="M100.93-.79h40.95v-1C154.47,6.39,165.81,18.28,175.33,33c19,29.39,30.82,70,30.82,114.83s-11.78,85.45-30.82,114.84c-9.52,14.69-20.86,26.58-33.45,34.8a80.27,80.27,0,0,1-19.75,9.46V300H79.72v6.93A80.27,80.27,0,0,1,60,297.45c-12.59-8.22-23.93-20.11-33.45-34.8-19-29.39-30.81-70-30.81-114.84S7.48,62.37,26.52,33C36,18.28,47.38,6.39,60-1.83v1Z" transform="translate(7.51 7.71)"/><path class="cls-71" d="M100.93-.79h31V-5.87a84.48,84.48,0,0,1,9.58,5.41C154,7.68,165.22,19.46,174.65,34c18.87,29.12,30.54,69.35,30.54,113.78s-11.67,84.67-30.54,113.79c-9.43,14.56-20.67,26.34-33.14,34.49a79.86,79.86,0,0,1-19.57,9.37V300h-42v5.48a79.86,79.86,0,0,1-19.57-9.37c-12.47-8.15-23.71-19.93-33.14-34.49C8.33,232.48-3.33,192.25-3.33,147.81S8.33,63.15,27.2,34C36.63,19.46,47.87,7.68,60.34-.46a84.48,84.48,0,0,1,9.58-5.41V-.79Z" transform="translate(7.51 7.71)"/><path class="cls-72" d="M100.93-.79h30.72V-4.46A84.32,84.32,0,0,1,141.13.9C153.49,9,164.62,20.65,174,35.07c18.7,28.85,30.26,68.71,30.26,112.74S192.67,231.7,174,260.55c-9.35,14.43-20.48,26.1-32.83,34.17A78.78,78.78,0,0,1,121.75,304v-4H80.11v4a78.61,78.61,0,0,1-19.39-9.29C48.36,286.65,37.23,275,27.88,260.55,9.19,231.7-2.38,191.84-2.38,147.81S9.19,63.92,27.88,35.07C37.22,20.65,48.36,9,60.72.9a82.71,82.71,0,0,1,9.49-5.36V-.79Z" transform="translate(7.51 7.71)"/><path class="cls-73" d="M100.93-.79h20.62V-6.94a78.43,78.43,0,0,1,19.21,9.21c12.25,8,23.27,19.56,32.53,33.85,18.52,28.59,30,68.07,30,111.69,0,87.24-45.82,158-102.34,158S-1.42,235.05-1.42,147.81c0-43.62,11.46-83.1,30-111.69C37.82,21.83,48.85,10.26,61.09,2.27A78.43,78.43,0,0,1,80.3-6.94V-.79Z" transform="translate(7.51 7.71)"/><path class="cls-74" d="M100.93-.79h20.43v-4.7a77.67,77.67,0,0,1,19,9.12c12.13,7.92,23.05,19.38,32.23,33.54C191,65.48,202.31,104.6,202.31,147.81c0,86.42-45.39,156.48-101.38,156.48S-.46,234.23-.46,147.81c0-43.21,11.35-82.33,29.7-110.64C38.41,23,49.33,11.55,61.46,3.63a77.85,77.85,0,0,1,19-9.12v4.7Z" transform="translate(7.51 7.71)"/><path class="cls-75" d="M100.93-7.19c55.46,0,100.42,69.4,100.42,155s-45,155-100.42,155S.5,233.42.5,147.81,45.46-7.19,100.93-7.19Z" transform="translate(7.51 7.71)"/><path class="cls-76" d="M100.93-5.71c54.93,0,99.46,68.74,99.46,153.52s-44.53,153.52-99.46,153.52S1.46,232.6,1.46,147.81,46-5.71,100.93-5.71Z" transform="translate(7.51 7.71)"/><path class="cls-77" d="M100.93-4.23c54.4,0,98.51,68.07,98.51,152s-44.11,152-98.51,152-98.51-68.07-98.51-152S46.52-4.23,100.93-4.23Z" transform="translate(7.51 7.71)"/><path class="cls-78" d="M100.93-2.75c53.87,0,97.54,67.41,97.54,150.56S154.8,298.37,100.93,298.37,3.38,231,3.38,147.81,47.05-2.75,100.93-2.75Z" transform="translate(7.51 7.71)"/><path class="cls-79" d="M100.93-1.27c53.34,0,96.59,66.75,96.59,149.08s-43.25,149.08-96.59,149.08S4.33,230.15,4.33,147.81,47.58-1.27,100.93-1.27Z" transform="translate(7.51 7.71)"/><path class="cls-80" d="M100.93.21c52.81,0,95.63,66.08,95.63,147.6s-42.82,147.6-95.63,147.6S5.29,229.33,5.29,147.81,48.11.21,100.93.21Z" transform="translate(7.51 7.71)"/><path class="cls-81" d="M100.93,1.69c52.28,0,94.67,65.42,94.67,146.12s-42.39,146.12-94.67,146.12S6.25,228.51,6.25,147.81,48.64,1.69,100.93,1.69Z" transform="translate(7.51 7.71)"/><path class="cls-82" d="M100.93,3.17c51.75,0,93.71,64.76,93.71,144.64s-42,144.65-93.71,144.65S7.21,227.7,7.21,147.81,49.17,3.17,100.93,3.17Z" transform="translate(7.51 7.71)"/><path class="cls-83" d="M100.93,4.65c51.22,0,92.75,64.1,92.75,143.16S152.15,291,100.93,291,8.17,226.88,8.17,147.81,49.7,4.65,100.93,4.65Z" transform="translate(7.51 7.71)"/><path class="cls-84" d="M100.93,6.13c50.69,0,91.79,63.43,91.79,141.68s-41.1,141.68-91.79,141.68S9.13,226.06,9.13,147.81,50.23,6.13,100.93,6.13Z" transform="translate(7.51 7.71)"/><path class="cls-85" d="M100.93,7.61c50.16,0,90.83,62.77,90.83,140.2S151.09,288,100.93,288s-90.84-62.77-90.84-140.2S50.76,7.61,100.93,7.61Z" transform="translate(7.51 7.71)"/><path class="cls-86" d="M100.93,9.09c49.63,0,89.87,62.11,89.87,138.72s-40.24,138.72-89.87,138.72S11,224.42,11,147.81,51.29,9.09,100.93,9.09Z" transform="translate(7.51 7.71)"/><path class="cls-87" d="M100.93,10.57c49.11,0,88.92,61.45,88.92,137.24S150,285.05,100.93,285.05,12,223.61,12,147.81,51.82,10.57,100.93,10.57Z" transform="translate(7.51 7.71)"/><path class="cls-88" d="M100.93,12.05c48.58,0,88,60.78,88,135.76s-39.38,135.76-88,135.76S13,222.79,13,147.81,52.35,12.05,100.93,12.05Z" transform="translate(7.51 7.71)"/><path class="cls-89" d="M100.93,13.53c48,0,87,60.12,87,134.28s-39,134.29-87,134.29-87-60.13-87-134.29S52.88,13.53,100.93,13.53Z" transform="translate(7.51 7.71)"/><path class="cls-90" d="M100.93,15c47.52,0,86,59.46,86,132.8s-38.52,132.81-86,132.81S14.88,221.16,14.88,147.81,53.4,15,100.93,15Z" transform="translate(7.51 7.71)"/><path class="cls-91" d="M100.93,16.49c47,0,85.08,58.79,85.08,131.32s-38.09,131.32-85.08,131.32S15.84,220.34,15.84,147.81,53.94,16.49,100.93,16.49Z" transform="translate(7.51 7.71)"/><path class="cls-92" d="M100.93,18c46.46,0,84.12,58.13,84.12,129.84s-37.66,129.84-84.12,129.84S16.8,219.52,16.8,147.81,54.46,18,100.93,18Z" transform="translate(7.51 7.71)"/><path class="cls-93" d="M100.93,19.45c45.93,0,83.16,57.47,83.16,128.36s-37.23,128.36-83.16,128.36S17.76,218.71,17.76,147.81,55,19.45,100.93,19.45Z" transform="translate(7.51 7.71)"/><path class="cls-93" d="M100.93,20.93c45.4,0,82.2,56.81,82.2,126.88s-36.8,126.89-82.2,126.89S18.72,217.89,18.72,147.81,55.52,20.93,100.93,20.93Z" transform="translate(7.51 7.71)"/><path class="cls-94" d="M100.93,22.41c44.87,0,81.24,56.15,81.24,125.4s-36.37,125.4-81.24,125.4-81.25-56.14-81.25-125.4S56.05,22.41,100.93,22.41Z" transform="translate(7.51 7.71)"/><path class="cls-95" d="M100.93,23.89c44.34,0,80.29,55.48,80.29,123.92s-35.95,123.93-80.29,123.93-80.3-55.49-80.3-123.93S56.58,23.89,100.93,23.89Z" transform="translate(7.51 7.71)"/><path class="cls-96" d="M100.93,25.37c43.81,0,79.33,54.82,79.33,122.44s-35.52,122.45-79.33,122.45S21.59,215.44,21.59,147.81,57.11,25.37,100.93,25.37Z" transform="translate(7.51 7.71)"/><path class="cls-97" d="M100.93,26.85c43.28,0,78.37,54.16,78.37,121s-35.09,121-78.37,121-78.38-54.16-78.38-121S57.64,26.85,100.93,26.85Z" transform="translate(7.51 7.71)"/><path class="cls-98" d="M100.93,28.33c42.75,0,77.41,53.49,77.41,119.48s-34.66,119.48-77.41,119.48S23.51,213.8,23.51,147.81,58.17,28.33,100.93,28.33Z" transform="translate(7.51 7.71)"/><path class="cls-99" d="M100.93,29.81c42.22,0,76.45,52.83,76.45,118s-34.23,118-76.45,118S24.47,213,24.47,147.81,58.7,29.81,100.93,29.81Z" transform="translate(7.51 7.71)"/><path class="cls-100" d="M100.93,31.29c41.69,0,75.49,52.17,75.49,116.52s-33.8,116.53-75.49,116.53-75.5-52.17-75.5-116.53S59.23,31.29,100.93,31.29Z" transform="translate(7.51 7.71)"/><path class="cls-101" d="M100.93,32.77c41.16,0,74.53,51.51,74.53,115s-33.37,115.05-74.53,115.05-74.54-51.51-74.54-115S59.76,32.77,100.93,32.77Z" transform="translate(7.51 7.71)"/><path class="cls-102" d="M100.93,34.25c40.63,0,73.58,50.84,73.58,113.56s-32.95,113.57-73.58,113.57S27.35,210.53,27.35,147.81,60.29,34.25,100.93,34.25Z" transform="translate(7.51 7.71)"/><path class="cls-103" d="M100.93,35.73c40.1,0,72.61,50.18,72.61,112.08S141,259.9,100.93,259.9,28.31,209.71,28.31,147.81,60.82,35.73,100.93,35.73Z" transform="translate(7.51 7.71)"/><path class="cls-104" d="M100.93,37.21c39.57,0,71.66,49.52,71.66,110.6S140.5,258.42,100.93,258.42,29.26,208.9,29.26,147.81,61.35,37.21,100.93,37.21Z" transform="translate(7.51 7.71)"/><path class="cls-105" d="M100.93,38.69c39,0,70.7,48.85,70.7,109.12S140,256.94,100.93,256.94,30.22,208.08,30.22,147.81,61.88,38.69,100.93,38.69Z" transform="translate(7.51 7.71)"/><path class="cls-105" d="M100.93,40.17c38.51,0,69.74,48.19,69.74,107.64s-31.23,107.65-69.74,107.65-69.75-48.2-69.75-107.65S62.41,40.17,100.93,40.17Z" transform="translate(7.51 7.71)"/></g><path class="cls-106" d="M194.79,295.6h-.09l0-.07s0-.06,0-.18h0v0c0-.2.17-.63.47-1.64l-8.86-1.07,0-.09-3.76-8.89L180.76,289H145l-.06-.07-3.4-4.43L139.71,289l-3.21-7.12-2.05,6.85h-.15c-24-1.33-42.36-2.16-60-2.16a389.75,389.75,0,0,0-43.06,2.16h-.1l-.06-.09-9.69-14.38,4.69,14.42-.21,0-24,4.07v-.23l.79-12.38,7.72-5.27L3.09,271v-.11l.75-18.31.07-.05,3.7-2.79-4.87-2.62.5-.1,11.07-2L3.08,242l.3-3.2C5,221.22,6.72,203.08,3.1,184.42l0-.07,0-.07,3.89-6-3.23-6.65-1-34.69,3.49-3.49-3.46-2.31,7.4-.74L2.73,116.92v-.06c3.62-24.23,2.71-45.95,1.44-76v-.12l0,0L6.6,36.9l-3-1.49.26-.17,10.48-6.76-11,1.34,0-.18L.2,2.91H.4l14.48-.51,0,.08,3.82,5.59,2.44-5,2.86,3.58L26.31,1.4l3.15,15.49,2-14.37.17,0c21,2,40.18,2.87,60.26,2.87,21.89,0,43.73-1,72.19-2.51h.14l0,.13L168,13.45l1.35-9.82h.14L201.67,0l0,.24L198.38,19.7l-.06.05L191,24.25,197,27.38v.11l.71,22.3-4.6,8.14,5,2.42,0,.14c-2.55,14.28-2.74,25.63-2.2,44.18v.15l-7.61,1.73,3.29,2v.1L193,126.07l6.77,1.18,0,.17c-2.06,12.38-2.94,21.75-1.7,35.76v.16l-.14,0-5.07,1.36,5.2,4.85V194.5l0,.05-4.59,5.3,5,11.06v0L198,230.87h-.17l-16,1,16.75,2-.75.26c-.53.62-.56,12.34-.59,23.68,0,14.26-.09,30.41-1.09,33.64-.74,2.37-1.06,3.4-1.22,3.84a1.33,1.33,0,0,0-.05.19h0C194.87,295.6,194.84,295.6,194.79,295.6Zm-8.29-3.32,8.77,1.05c.16-.52.37-1.18.62-2,1-3.18,1-19.31,1.08-33.54,0-16.21.14-22.32.62-23.71L179.89,232v-.36l17.79-1.06L198,211,193,199.79l.08-.09,4.62-5.33V169.74l-5.56-5.19.31-.09,5.24-1.39c-1.22-13.91-.35-23.25,1.68-35.53l-6.68-1.16v-.14l-1.43-17.5-3.9-2.34,8.2-1.86c-.54-18.44-.34-29.76,2.18-44l-5.12-2.47,4.73-8.38-.71-22.11-6.29-3.33.27-.16,7.47-4.63L201.23.41,169.66,4l-1.52,11L164,3.26c-28.41,1.48-50.22,2.52-72.08,2.52-20,0-39.14-.92-60.12-2.87L29.52,19,26.19,2.6,24.14,7.38,21.26,3.77l-2.46,5-.17-.25L14.69,2.76.61,3.25,3.68,29.42l12.19-1.49L4.35,35.37l2.77,1.39L4.53,40.84c1.27,30.05,2.19,51.78-1.43,76l7.64,13.83-6.95.7,3,2L3.1,137.06l1,34.5,3.29,6.73-.06.09-3.91,6c3.62,18.69,1.92,36.83.28,54.38l-.28,2.89,12.47,3.4-12.12,2.2,4.46,2.41-.22.16-3.86,2.91-.73,18,7.7,4-.25.17-7.82,5.34-.77,12,23.34-4L20.3,271.9l11.07,16.41a388.37,388.37,0,0,1,43-2.15c17.56,0,35.92.82,59.83,2.15l2.26-7.5,3.25,7.24,1.76-4.22,3.73,4.85h35.31l1.91-6.09Z" transform="translate(7.51 7.71)"/><g class="cls-5"><g class="cls-107"><path class="cls-6" d="M.42,136.9c0,1.74-.42,3.56-.42,5.37a7.07,7.07,0,0,0,1.12,4.06C3.63,140.22,9.06,137,14,132.68a1.87,1.87,0,0,0,.62-1.44,2.32,2.32,0,0,0-.26-1.07c-18-34.54-11-22.64-14.36-17.59l.36.72c-.33,3.44-.46,7-.46,10.49C-.06,129.78.42,136.89.42,136.9Z" transform="translate(7.51 7.71)"/><path class="cls-6" d="M33.43,282.4c-2.8-8.41-8.65-9.21-8.65-12.51,0-.38,0-.76,0-1.12,0-1.2-.39-2.06-1.61-2.06-1,0-2.2.69-3.21.69s-1.92-1.23-2.28-1.23-.55,4.63-.55,5.9.05,2.79.05,4.2a34,34,0,0,1-.28,4.69c-4.78-11.45-6.77-13.4-6.77-13.4,0-1.32,1.32-3.47,1.32-5.53,0-1.79-1.48-3.34-1.48-5.09,0-2,12.5-9.4,12.5-12,0-4.67-14.51-4.07-19.22-13.49a7.8,7.8,0,0,0-.67.94,2.34,2.34,0,0,1,2.21-2.18,1.82,1.82,0,0,1,1.3.56,9.07,9.07,0,0,0,1.31-5.33c0-.86,0-1.73,0-2.6,0-5.47,2.35-1.83,2.35-5.68,0-1.58-.66-3.33-.66-4.93,0-2.2,1.76-3.56,1.76-5.4,0-2.28-3.22-2-3.22-5.43s2-3.7,2-5.88a1.62,1.62,0,0,0-.57-1.4,12.8,12.8,0,0,1-4.69-5.36c2.23-4.56,7.33-8,7.33-12.81,0-1.71-5-16.86-6.67-16.86-.44,0-5.41,10.5-5.41,23.66a50.06,50.06,0,0,0,1.19,11l.09-.1C1,209.35,1,227.46,1.7,235.4c-.13,1.39,0,2.83-.22,4.27a97.5,97.5,0,0,0-.67,12.06c0,7.61.59,15.22.59,22.83,0,8.89-.76,11.07-.76,14.49s1.13,8.06,4.79,8.06c13.61,0,32-7.43,32.31-7.53,3.8-1.09,6.62.12,6.62-2.25a1.4,1.4,0,0,0-.35-.75l.42-.06-.51,0C42.62,284.92,38.51,282.4,33.43,282.4Z" transform="translate(7.51 7.71)"/><path class="cls-6" d="M197.52,287.08a22.1,22.1,0,0,0,.94-6.36,88.81,88.81,0,0,0-1-10.27q.54.42,1.14.81c-.32-3.37-.45-6.67-.45-10,0-23.41,4.52-27.08,4.52-39.13,0-2.92-.27-3-.27-7.15,0-1.41,0-2.82,0-4.23a29.58,29.58,0,0,0-1.32-9.89,11.77,11.77,0,0,0-2.46-3.78c.91-1.26,1.59-5.23,1.59-13.46.85-7.62,1.37-18.53,1.37-20.26a44.46,44.46,0,0,0-1.17-10.47c.06-1.52.09-3.24.09-5.21a41.82,41.82,0,0,0-2-12.56c1.88-.88,3.21-4,3.21-10.36,0-2.26-2.59-22.62-3.47-25.15-.41-1.17-1.05-2.47-1.65-3.83.52-6.6,2.08-13,2.08-19.6,0-4.23-.52-7.09-1.28-8.88,2.28-3.19,4.09-13.79,4.09-39.24,0-32.94.29-29.89-11.4-29.89-.26,0-21.76.68-32.54,2.77a8.09,8.09,0,0,0-2.21-.3c-3.37,0-6.77,1.43-10.14,1.43A146.06,146.06,0,0,0,126.09,1c-3.83,0-7.63.07-11.43.07C97,1,81.86-1.73,65.31-1.73c-.17,0-6.57,0-13.16.26C49-2,46.71-2.32,46.29-2.32A7.55,7.55,0,0,0,41.75-.64,9.51,9.51,0,0,0,38,.43,86.87,86.87,0,0,0,22.9-1.25L18-1.23c-3,0-6.19-.36-9.33-.36A21.3,21.3,0,0,0-.67.21a301,301,0,0,0,3.9,50.37c0,.21,0,.43,0,.65,0,0-.07.12-.07.27a1,1,0,0,0,.09.42c0,.1,0,.2,0,.3l-.73-.09c0,1.53-.1,4.19-.1,8.52,0,9,.18,18.07.18,27.06a183.44,183.44,0,0,1-.79,18.41A3.34,3.34,0,0,0,4,107.77c4.27,0,5.13-24.45,5.13-28.8A78.37,78.37,0,0,0,7.45,63a3.22,3.22,0,0,0,.3-1.54C7.75,59.27,6,57,6,54.78s1.87-3.61,1.87-5a30.62,30.62,0,0,1-2.45-3.37C10.32,38.86,19.34,35,19.34,27.76c0-8.15-8.32-6.83-8.32-9.94s3.78-3.09,6.42-3.09c11.13,0,5.42,8.91,12,8.91,4.46,0,.37-5.77,7.26-12.66a10.23,10.23,0,0,1,3.9-2.12A10.55,10.55,0,0,0,47.8,11.7l1.05,0c3.94,0,8,1,11.95,1,6.24,0,9.44-3.14,10.64-5.41,4.52.73,8.8,6.05,8.8,12.48,0,3.62,3.14.44,3.14-3.12,0-1.47-.27-3-.27-4.4,0-3,1.62-4.31,4.22-4.31S93.12,9.3,96,9.3c1.52,0,2.09-.44,4.93-.44s11.64,1.41,11.73,1.41c1.36,0,2.37-1.45,3.74-1.45.3,0,.91.81,1.26.81a2.45,2.45,0,0,1,2-.81c1.43,2.88,4.66,2.16,6.1,4.67,1.68-1,2.31-4.69,3.67-4.69.34,0,1,.75,1.31.75h0c1.09-.28,1.79-1.8,2.87-1.8,4.07,0,8.18-1.32,12.24-1.32,6,0,1.28,1.75,9.63,1.75a23.57,23.57,0,0,0,3.32-.3c4.32,5.56,6.59,14.23,9.27,14.23,6.3,0,.57-12.69,13.44-12.69,5.79,0,8.81,3.12,8.81,5.3,0,3.23-7.66,7.65-7.66,12.25,0,7.39,10.17,4.39,10.17,12.88,0,7.58-4.85,12.3-4.85,16.06,0,.15,2.13,6.77,4.69,10.34a7.75,7.75,0,0,0-1.16,4.3c0,3.69,2,4.76,2,8.14,0,2.4-3.65,2.22-3.65,4.71,0,1.43,5.8,6.27,2.27,6.27a1.4,1.4,0,0,1-1.05-.42c1.87,1.53,2.29,3.63,2.29,5.91,0,1.85-.27,3.82-.27,5.71V101c-4.65,1.13-11.67,1.82-11.67,6.29,0,4.2,5.1.16,5.1,5.62,0,1.21-.5,2.24-.5,5,0,6.56,4.86,14.76,9.17,17-.25,3.36-.5,6.76-.5,10.13a54.06,54.06,0,0,0,1.06,10.16c-2,7.22-7.44,5.45-7.44,10.23,0,4.38,5.18,2.82,7.38,8a5,5,0,0,0-1,3.27c0,1.11.2,2.23.2,3.34,0,1.77-.6,2.17-.6,4.84a32.87,32.87,0,0,0,1.07,8.08c-.1-.19-.2-.39-.29-.59-1.44,4.31-6.82,4.31-8.26,8.62,3.76,5.1,6.92,11.21,6.92,17.42,0,13.3-20.81,5.52-20.81,13,0,4.59,19.4,8.13,19.4,13.67,0,1.92-2.31,3.91-2.31,6.07,0,2,2.26,3.26,2.26,5.22,0,1.78-2,2-2,4a17.42,17.42,0,0,0,2.91,5.68,20.57,20.57,0,0,0-2.39,9.82,16.87,16.87,0,0,0,2.17,9,4.6,4.6,0,0,1-2.19-1.68c-6.69-12.42-2.67-5.22-6.71-5.22-2.2,0-3.19-2.89-4.78-4.47a51.08,51.08,0,0,1-3.27,13.46,13.05,13.05,0,0,0-4.67-.94,10.17,10.17,0,0,0-4.9,1.37c-1.45-2.64-4.72-5.79-5.53-5.79-2.62,0-2.68,4.62-7.74,4.62a26.23,26.23,0,0,1-6.5-1.23c-1.29-3.73-1.93-8.83-3.16-8.83-.9,0-2,1.06-3,1.06-.51,0-4.29-1.16-4.7-4-3.22,3.86-4.12,8.06-5.1,11.31-2.73-2.21-8.41-2.49-10.54-2.49-4.73,0-9.65,1.82-14.78,1.82-2,0-4.06.73-6.39.73-2.7,0-7.87-.78-11.85-.78a25.92,25.92,0,0,0-6.68.8c-.62,0-1.3-1.09-1.92-1.09a53.15,53.15,0,0,1-7.14,1.13c-4,0-3.57-6.25-6-6.25-.95,0-1.83,1.76-2.46,3a3.67,3.67,0,0,0-1.57-.43c-2.35,0-10.2,4.6-16.89,5.66,20.28,1.58,72.91,4.41,73,4.41a54.16,54.16,0,0,0,11.1-1c5.9,1.18,19.19,2.15,19.76,2.15,12.23,0,2-2.95.79-3.46a2.61,2.61,0,0,1-.87-.65c6,1.79,19.58,5.21,30.37,5.21a1.37,1.37,0,0,0,.7-.24,4.08,4.08,0,0,0,.67.23c4.46,1,9.07,2.8,13.28,2.8,2.71,0,6.92-.94,6.92-4.1A5.5,5.5,0,0,0,197.52,287.08Zm-30.79,1,3.62.3a15.61,15.61,0,0,0-3.37.46A4.21,4.21,0,0,0,166.73,288.11Z" transform="translate(7.51 7.71)"/><path class="cls-6" d="M.76,51.9l1.79.23C2.58,49.33,2.34,50.33.76,51.9Z" transform="translate(7.51 7.71)"/></g><g class="cls-108"><path class="cls-6" d="M24.1,29.65c0,.16-.43.72-.43,1.1s.74,2.94,2.46,2.94c1.3,0,1.75-1.2,1.75-2.53,0-4-4-4.76-4-2.64A3.78,3.78,0,0,0,24.1,29.65Z" transform="translate(7.51 7.71)"/><path class="cls-6" d="M31.28,27.85c.24,0,.53.35.78.35s.37-.45.37-.72c0-.86-.14-.56-.33-.56s-.38-.07-.53-.07-.24.07-.24.34Z" transform="translate(7.51 7.71)"/><path class="cls-6" d="M11.17,45.08c-.34.35.42.55.42.91S13,46.18,13,45c0-.38-.78-.78-1.17-.78a.48.48,0,0,0-.38.15l0,.34Z" transform="translate(7.51 7.71)"/><path class="cls-6" d="M18.35,17.8a.35.35,0,0,0-.24.32c0,.29.37.64.37.91s1.12.44,1.12-.73c0-.51-.17-1-1.08-1Z" transform="translate(7.51 7.71)"/><path class="cls-6" d="M72.21,12.05c0,1.18-1.1,1.79-1.1,2.77s1.5.47,2.17.47c.28,0,.87-.28.87-.7a.64.64,0,0,0-.15-.38C73.39,13.4,72.56,13.13,72.21,12.05Z" transform="translate(7.51 7.71)"/><path class="cls-6" d="M178.47,14.21a7.32,7.32,0,0,0-2.16,4c0,.32.32.41.67.41,1.79,0,2.27-3.29,2.27-3.65A.76.76,0,0,0,178.47,14.21Z" transform="translate(7.51 7.71)"/><path class="cls-6" d="M181.35,16.72c-.72,2.51-.64,4.81-3.23,6.1-.1.05-.14.25-.14.51,0,.64.24,1.65.49,1.65,3,0,4.49-3.49,4.49-6.53a8.05,8.05,0,0,0-.18-1.73Z" transform="translate(7.51 7.71)"/><path class="cls-6" d="M155.14,13.13a3.52,3.52,0,0,0-2.22-1,1.35,1.35,0,0,0-1.38,1.42c0,.39,1.9,1.47,2.09,1.47.36,0,1.85-.65,1.85-1.23A1,1,0,0,0,155.14,13.13Z" transform="translate(7.51 7.71)"/><path class="cls-6" d="M16.2,126.58c2,6,2.42,6.89.53,6.89-.38,0-1.14-1.72-1.14-2.81a2.77,2.77,0,0,1,.85-2Z" transform="translate(7.51 7.71)"/><path class="cls-6" d="M18.71,135.2c.12.36,1,4,1,2.31,0-.39.08-.79.08-1.15C19.79,135.83,19.61,135.38,18.71,135.2Z" transform="translate(7.51 7.71)"/><path class="cls-6" d="M13.33,170c.25,1,.63,2.56,1.79,2.56a1.14,1.14,0,0,0,1.21-1.29c0-.94-.69-3-2.23-3-.86,0-.81.48-.81,1.31A1.43,1.43,0,0,0,13.33,170Z" transform="translate(7.51 7.71)"/><path class="cls-6" d="M18.35,168.59c0,.35.59,2.24,1.39,2.24.23,0,.41-.09.41-.45,0-2.84-1.36-3.07-1.36-2.71s-.51.5-.51.76A.25.25,0,0,0,18.35,168.59Z" transform="translate(7.51 7.71)"/><path class="cls-6" d="M15.48,164.64c-.3,0-.33,0-.33.25,0,.59,1.6.82,1.6-.3,0-.33-.3-.17-1.14-.17Z" transform="translate(7.51 7.71)"/><path class="cls-6" d="M9.38,231.05c.28,1.15.91,3.34,2,3.34a1.61,1.61,0,0,0,1.35-1.73c0-1-.71-2.95-2.08-2.95-1.05,0-1.34.68-1.34,1.75,0,.58.09,1.21.09,1.75Z" transform="translate(7.51 7.71)"/><path class="cls-6" d="M14,260.13c-1.61,0,1.83,8.06,1.83,1.94,0-.78-.13-1.57-.13-2.3,0-3.83,5.43-3,5.43-5.93a3.23,3.23,0,0,0-.3-1.24C17.63,254,15.84,257.26,14,260.13Z" transform="translate(7.51 7.71)"/><path class="cls-6" d="M34.51,274.5c2.12,3.33,5.49,6,9.53,6a10.9,10.9,0,0,0,2.41-.3c.64,0,1.76,1.48,1.76,3s1.08-2.46,1.08-3.8c0-1.88-.52-2.77-3.13-2.77-1.48,0-3,.41-4.48.41-4,0-1.8-4.16-6.06-4.16a.58.58,0,0,0-.4.13A2.71,2.71,0,0,1,34.51,274.5Z" transform="translate(7.51 7.71)"/><path class="cls-6" d="M72.21,279.52a7.57,7.57,0,0,0,3,1.2,2.11,2.11,0,0,0,2-1.78c0-.36-.52-1.37-2.38-1.37a9.11,9.11,0,0,0-1.59.16C72.49,277.86,72.21,278.81,72.21,279.52Z" transform="translate(7.51 7.71)"/><path class="cls-6" d="M67.18,273.42c.29.58.81,1.63,1.57,1.63.59,0,1-1,1-1.38a2.92,2.92,0,0,0-2.29-1.37c-.3,0-.39.11-.39.25s.15.46.15.66A.32.32,0,0,1,67.18,273.42Z" transform="translate(7.51 7.71)"/><path class="cls-6" d="M166.63,275.21c.22,1.55.94,4.14,2.71,4.14,1.32,0,2.58-1.2,2.58-3.25a2.36,2.36,0,0,0-.27-1.25c-2.41-3.31-2.15-5.74-2.51-9.33-2.1,1.58-2.72,4.28-2.72,6.9A19.26,19.26,0,0,0,166.63,275.21Z" transform="translate(7.51 7.71)"/><path class="cls-6" d="M175.6,269.11a4.65,4.65,0,0,0-.07.75c0,.73.19,1.12.85,1.12.94,0,1.51-1.14,1.51-2.11,0-1.17-.79-1.43-1.14-1.43C176.11,267.44,175.77,268.25,175.6,269.11Z" transform="translate(7.51 7.71)"/><path class="cls-6" d="M183.86,270.19c1.13,2.26,2.55.24,2.55-1.46,0-1.07-.62-3.35-2.3-3.35a3.09,3.09,0,0,0-2.51,3c0,.83.37,2,1.5,2A2.43,2.43,0,0,0,183.86,270.19Z" transform="translate(7.51 7.71)"/><path class="cls-6" d="M180.27,263a.68.68,0,0,0,.57.68c.89,0,.44-1.16.44-1.52l-.38-.05Z" transform="translate(7.51 7.71)"/><path class="cls-6" d="M185.65,219.57a.67.67,0,0,0,0,.22c0,.35.38,2,1.79,2,1,0,3-1,3-3.82,0-2.63-1.81-5.63-4.42-5.63-.64,0-1.15.89-1.15,1.69,0,1.65,1.35.67,3.67,3C187.81,218.13,186.23,218.41,185.65,219.57Z" transform="translate(7.51 7.71)"/><path class="cls-6" d="M188.89,193a3.08,3.08,0,0,0,1.91-3.11,6.18,6.18,0,0,0-.12-1.2C188.89,189.77,189.61,191.56,188.89,193Z" transform="translate(7.51 7.71)"/><path class="cls-6" d="M181.35,38.26a14.74,14.74,0,0,1,2.58,8.09c0,2.15-.89,3.52.55,3.52.57,0,1.18-2.76,1.18-3.2,0-6.71-.41-10.35-2.71-10.35a2.3,2.3,0,0,0-1.7,1.64A.47.47,0,0,0,181.35,38.26Z" transform="translate(7.51 7.71)"/><path class="cls-6" d="M11.17,61.24a3.27,3.27,0,0,0,0,.54c0,1.92,1.61,3.6,1.48,5.56s-.69,4-.69,5.87c0,6.6,2.32,0,2.32-5.36a22,22,0,0,0-.2-3C13.85,63.41,12.61,62.32,11.17,61.24Z" transform="translate(7.51 7.71)"/><path class="cls-6" d="M12.61,82.06c-1,.65.36.67.36,1.19,0,.15-.15.26.19.26a2.6,2.6,0,0,0,.71-1.23c0-.39.18-.84.18-1.27a1,1,0,0,0-.5-.92Z" transform="translate(7.51 7.71)"/><path class="cls-6" d="M16.2,203.77a8.49,8.49,0,0,0-1.26,3.33c0,.86.53,1.52,1,1.52,1.91,0,1.51-1.66,1.51-2s0-.77,0-1.13A1.56,1.56,0,0,0,16.2,203.77Z" transform="translate(7.51 7.71)"/></g></g></g></g></g></svg>