<svg xmlns="http://www.w3.org/2000/svg" xmlns:xlink="http://www.w3.org/1999/xlink" viewBox="0 0 17.34 17.99"><defs><style>.cls-1{fill:url(#linear-gradient);}.cls-2{isolation:isolate;}.cls-3{fill:#a4947d;}.cls-3,.cls-7{mix-blend-mode:multiply;}.cls-4{clip-path:url(#clip-path);}.cls-5{mix-blend-mode:overlay;}.cls-6{fill:#ababab;}.cls-8{fill:url(#linear-gradient-3);}.cls-9{fill:#e6e6e6;}</style><linearGradient id="linear-gradient" x1="4.25" y1="0.91" x2="10.97" y2="14.77" gradientUnits="userSpaceOnUse"><stop offset="0" stop-color="#f09d42"/><stop offset="1" stop-color="#8c3811"/></linearGradient><clipPath id="clip-path" transform="translate(1.43 1.09)"><path class="cls-1" d="M8,15.66A8,8,0,0,1,0,7.9,8.16,8.16,0,0,1,8,0c4.21,0,7.13,3.69,7.13,7.9S12.17,15.66,8,15.66Z"/></clipPath><linearGradient id="linear-gradient-3" x1="5.84" y1="1.28" x2="9.55" y2="12.82" gradientUnits="userSpaceOnUse"><stop offset="0" stop-color="#fbc93b"/><stop offset="0.25" stop-color="#f0b434"/><stop offset="0.76" stop-color="#d58021"/><stop offset="1" stop-color="#c76518"/></linearGradient></defs><g class="cls-2"><g id="Layer_2" data-name="Layer 2"><g id="Layer_1-2" data-name="Layer 1"><path class="cls-3" d="M8.79,16.9a8.05,8.05,0,0,1-8-7.77,8.17,8.17,0,0,1,8-7.89c4.2,0,7.12,3.69,7.12,7.89S13,16.9,8.79,16.9Z" transform="translate(1.43 1.09)"/><path class="cls-1" d="M8,15.66A8,8,0,0,1,0,7.9,8.16,8.16,0,0,1,8,0c4.21,0,7.13,3.69,7.13,7.9S12.17,15.66,8,15.66Z" transform="translate(1.43 1.09)"/><g class="cls-4"><g class="cls-5"><path class="cls-6" d="M-.83,8.86c1.33,0,2.62,1,3.53,1S7.56,5.65,7.56,1.83c0-7.23-9,.75-9,4.64A5.34,5.34,0,0,0-.83,8.86Z" transform="translate(1.43 1.09)"/></g><g class="cls-5"><path class="cls-6" d="M0,3.09H-.28C.92,4.29,2.54,6.54,4,6.54a1.38,1.38,0,0,0,1.4-1.43C5.43,4.17,4.21,1,2.18,1A2.09,2.09,0,0,0,0,3.09Z" transform="translate(1.43 1.09)"/></g><g class="cls-5"><path class="cls-6" d="M1.37,1.44C2,2.67,3.69,6,5.25,6S5.21,0,3.17,0a2.39,2.39,0,0,0-.7.12C1.88.24,1.64.89,1.37,1.44Z" transform="translate(1.43 1.09)"/></g><g class="cls-7"><path class="cls-6" d="M7.69,11.88c-.41,1.22,1.37,4.43,2.23,4.43,6.3,0,4.5-6.35,0-6.35A2.9,2.9,0,0,0,7.69,11.88Z" transform="translate(1.43 1.09)"/></g><g class="cls-7"><path class="cls-6" d="M10.16,11.33a2.23,2.23,0,0,0,2.1,2.08c2.55,0,3.72-5.07.59-5.07A2.1,2.1,0,0,0,11.36,9Z" transform="translate(1.43 1.09)"/></g></g><path class="cls-8" d="M13.53,7.9A5.57,5.57,0,1,1,8,2.33,5.57,5.57,0,0,1,13.53,7.9Z" transform="translate(1.43 1.09)"/><g class="cls-5"><path class="cls-9" d="M8,13.67A5.77,5.77,0,1,1,13.73,7.9,5.78,5.78,0,0,1,8,13.67ZM8,2.54A5.36,5.36,0,1,0,13.32,7.9,5.37,5.37,0,0,0,8,2.54Z" transform="translate(1.43 1.09)"/></g></g></g></g></svg>