<svg xmlns="http://www.w3.org/2000/svg" xmlns:xlink="http://www.w3.org/1999/xlink" viewBox="0 0 11.5 12.75"><defs><style>.cls-1{fill:url(#linear-gradient);}.cls-2{isolation:isolate;}.cls-3{mix-blend-mode:multiply;}.cls-4{fill:#ab9c8c;}.cls-5{clip-path:url(#clip-path);}.cls-6{mix-blend-mode:overlay;}.cls-7{fill:#ababab;}.cls-8{fill:url(#linear-gradient-3);}.cls-9{fill:#e6e6e6;}.cls-10{fill:#b3b3b3;}.cls-11{fill:#fff;}</style><linearGradient id="linear-gradient" x1="5.19" y1="-0.17" x2="5.19" y2="9.94" gradientUnits="userSpaceOnUse"><stop offset="0" stop-color="#f09d42"/><stop offset="1" stop-color="#8c3811"/></linearGradient><clipPath id="clip-path" transform="translate(0.52 1)"><path class="cls-1" d="M2.73,10.29A2.54,2.54,0,0,1,0,7.79C0,5.37,0,5.37,0,3A2.86,2.86,0,0,1,2.73.08C5.14.08,5.14,0,7.56,0a3,3,0,0,1,2.79,3c0,2.42-.32,2.42-.32,4.84a2.38,2.38,0,0,1-2.46,2.54C5.15,10.21,5.14,10.29,2.73,10.29Z"/></clipPath><linearGradient id="linear-gradient-3" x1="5.66" y1="2.85" x2="5.66" y2="10.1" gradientUnits="userSpaceOnUse"><stop offset="0" stop-color="#fbc93b"/><stop offset="0.25" stop-color="#f0b434"/><stop offset="0.76" stop-color="#d58021"/><stop offset="1" stop-color="#c76518"/></linearGradient></defs><g class="cls-2"><g id="Layer_2" data-name="Layer 2"><g id="Layer_1-2" data-name="Layer 1"><g class="cls-3"><path class="cls-4" d="M3.6,10.93C2,11,.28,10.09.19,8.49,0,5.87.16,5.87,0,3.22a2.92,2.92,0,0,1,3-3c2.57.21,2.58,0,5,.19,1.45.12,2.53,1.91,2.59,3.38.1,2.38-.19,2.38-.1,4.75.06,1.45-.61,2.77-2,2.8C6.12,11.26,6.11,10.89,3.6,10.93Z" transform="translate(0.52 1)"/></g><path class="cls-1" d="M2.73,10.29A2.54,2.54,0,0,1,0,7.79C0,5.37,0,5.37,0,3A2.86,2.86,0,0,1,2.73.08C5.14.08,5.14,0,7.56,0a3,3,0,0,1,2.79,3c0,2.42-.32,2.42-.32,4.84a2.38,2.38,0,0,1-2.46,2.54C5.15,10.21,5.14,10.29,2.73,10.29Z" transform="translate(0.52 1)"/><g class="cls-5"><g class="cls-6"><path class="cls-7" d="M-.22.8c-.22,0,1,2,2.56,2C3.58,2.84,1.8-.7.07-.7c-.27,0-.49.08-.49.63A2.08,2.08,0,0,0-.22.8Z" transform="translate(0.52 1)"/></g><g class="cls-6"><path class="cls-7" d="M8.17-.55C7.83.37,6.79,1.36,6.79,2.2a.86.86,0,0,0,.78.87C8,3.07,10.1,1.94,10.1.54A1.1,1.1,0,0,0,9.17-.65c-.47,0-1,.46-1.44.7Z" transform="translate(0.52 1)"/></g><g class="cls-6"><path class="cls-7" d="M.83.05C-.71-1.49,3.89,5.47,3.89-.19,3.89-.9,3.68-1,3.38-1c-.46,0-1.17.31-1.77.31S.8-.45.8-.12A.55.55,0,0,0,.83.05Z" transform="translate(0.52 1)"/></g><g class="cls-3"><path class="cls-7" d="M2.33,7.24c-.9.9-2.44,1.34-2.85,2.7h0c0,.34,1.36.37,4.11.37,13.83,0,4.43-3.26,2.25-3.26-1,0-2,.21-2.93.21A5.49,5.49,0,0,1,2.33,7.24Z" transform="translate(0.52 1)"/></g><g class="cls-3"><path class="cls-7" d="M5.33,8.14c.45,1.35.93,2.94,2.25,3.6h0c.14,0,.42-.32.42-1C8,9.42,7.46,8,6.06,8A2.88,2.88,0,0,0,5.33,8.14Z" transform="translate(0.52 1)"/></g></g><rect class="cls-8" x="2.12" y="2.83" width="7.08" height="7.08" rx="1.12"/><g class="cls-6"><path class="cls-9" d="M7.56,9H2.73A1.24,1.24,0,0,1,1.49,7.79V3A1.24,1.24,0,0,1,2.73,1.72H7.56A1.23,1.23,0,0,1,8.79,3V7.79A1.23,1.23,0,0,1,7.56,9ZM2.73,1.94a1,1,0,0,0-1,1V7.79a1,1,0,0,0,1,1H7.56a1,1,0,0,0,1-1V3a1,1,0,0,0-1-1Z" transform="translate(0.52 1)"/></g><g class="cls-3"><path class="cls-10" d="M5,6.32H3.09V5H5V3.09H6.31V5H8.19V6.32H6.31V8.27H5Z" transform="translate(0.52 1)"/></g><path class="cls-11" d="M4.52,5.88H2.65V4.58H4.52V2.64H5.86V4.58H7.74v1.3H5.86V7.82H4.52Z" transform="translate(0.52 1)"/></g></g></g></svg>