<svg xmlns="http://www.w3.org/2000/svg" xmlns:xlink="http://www.w3.org/1999/xlink" viewBox="0 0 7.35 7.63"><defs><style>.cls-1{fill:url(#linear-gradient);}.cls-2{isolation:isolate;}.cls-3{fill:#a4947d;}.cls-3,.cls-7{mix-blend-mode:multiply;}.cls-4{clip-path:url(#clip-path);}.cls-5{mix-blend-mode:overlay;}.cls-6{fill:#ababab;}.cls-8{fill:url(#linear-gradient-3);}.cls-9{fill:#e6e6e6;}</style><linearGradient id="linear-gradient" x1="1.8" y1="0.39" x2="4.65" y2="6.26" gradientUnits="userSpaceOnUse"><stop offset="0" stop-color="#f09d42"/><stop offset="1" stop-color="#8c3811"/></linearGradient><clipPath id="clip-path" transform="translate(0.6 0.46)"><path class="cls-1" d="M3.38,6.64A3.41,3.41,0,0,1,0,3.35,3.46,3.46,0,0,1,3.38,0a3.17,3.17,0,0,1,3,3.35A3.11,3.11,0,0,1,3.38,6.64Z"/></clipPath><linearGradient id="linear-gradient-3" x1="2.48" y1="0.54" x2="4.05" y2="5.44" gradientUnits="userSpaceOnUse"><stop offset="0" stop-color="#fbc93b"/><stop offset="0.25" stop-color="#f0b434"/><stop offset="0.76" stop-color="#d58021"/><stop offset="1" stop-color="#c76518"/></linearGradient></defs><g class="cls-2"><g id="Layer_2" data-name="Layer 2"><g id="Layer_1-2" data-name="Layer 1"><path class="cls-3" d="M3.73,7.16A3.4,3.4,0,0,1,.35,3.87,3.46,3.46,0,0,1,3.73.52a3.17,3.17,0,0,1,3,3.35A3.11,3.11,0,0,1,3.73,7.16Z" transform="translate(0.6 0.46)"/><path class="cls-1" d="M3.38,6.64A3.41,3.41,0,0,1,0,3.35,3.46,3.46,0,0,1,3.38,0a3.17,3.17,0,0,1,3,3.35A3.11,3.11,0,0,1,3.38,6.64Z" transform="translate(0.6 0.46)"/><g class="cls-4"><g class="cls-5"><path class="cls-6" d="M-.35,3.76c.56,0,1.11.43,1.5.43S3.2,2.4,3.2.78c0-3.07-3.8.32-3.8,2A2.18,2.18,0,0,0-.35,3.76Z" transform="translate(0.6 0.46)"/></g><g class="cls-5"><path class="cls-6" d="M0,1.31H-.12c.51.51,1.2,1.46,1.83,1.46a.58.58,0,0,0,.59-.6C2.3,1.77,1.79.41.93.41A.89.89,0,0,0,0,1.31Z" transform="translate(0.6 0.46)"/></g><g class="cls-5"><path class="cls-6" d="M.58.61c.26.52,1,2,1.64,2S2.21,0,1.34,0A1.1,1.1,0,0,0,1.05,0C.8.1.7.38.58.61Z" transform="translate(0.6 0.46)"/></g><g class="cls-7"><path class="cls-6" d="M3.26,5c-.17.52.58,1.88,1,1.88,2.67,0,1.91-2.7,0-2.7A1.23,1.23,0,0,0,3.26,5Z" transform="translate(0.6 0.46)"/></g><g class="cls-7"><path class="cls-6" d="M4.31,4.8a1,1,0,0,0,.89.89c1.08,0,1.58-2.15.25-2.15a.85.85,0,0,0-.63.26Z" transform="translate(0.6 0.46)"/></g></g><path class="cls-8" d="M5.74,3.35A2.36,2.36,0,1,1,3.38,1,2.36,2.36,0,0,1,5.74,3.35Z" transform="translate(0.6 0.46)"/><g class="cls-5"><path class="cls-9" d="M3.38,5.79A2.45,2.45,0,1,1,5.82,3.35,2.45,2.45,0,0,1,3.38,5.79Zm0-4.71A2.27,2.27,0,1,0,5.65,3.35,2.28,2.28,0,0,0,3.38,1.08Z" transform="translate(0.6 0.46)"/></g></g></g></g></svg>