<svg xmlns="http://www.w3.org/2000/svg" viewBox="0 0 61.35 0.97"><defs><style>.cls-1{fill:#594224;}</style></defs><g id="Layer_2" data-name="Layer 2"><g id="Layer_1-2" data-name="Layer 1"><path class="cls-1" d="M-6.77,3.7l2.64-.26c.84,0,1.88,0,3-.12L.77,3.14c.65-.06,1.34-.05,2.07-.08L4,3l1.15.07c.76.06,1.57.07,2.41.17A8,8,0,0,0,10,3.48c.87,0,1.77-.06,2.67,0h1.86l.17,0a5.05,5.05,0,0,0,.68-.08L16,3.16l.35-.1.37,0A8.77,8.77,0,0,1,18.2,3l2.86.13,1.43.05,1.43-.06c.49,0,.95-.07,1.47-.05.24,0,.48,0,.73.07l.72.18a13.57,13.57,0,0,0,2.8.13h1l.35,0a2.14,2.14,0,0,0,.64-.14l.69-.19A22.13,22.13,0,0,1,35.15,3c.44,0,.92,0,1.35,0s.92.13,1.32.18c.83.06,1.7,0,2.52,0s1.65,0,2.42.06l1.12,0L45,3.29l1.07-.09c.18,0,.33,0,.54,0l.49,0a4.66,4.66,0,0,1,1,.23l.42.12.43,0c1.14.08,2.19.06,3,.09l2.65-.1-2.64.25c-.86,0-1.85.11-3.06.09l-.46,0L48,3.81A4.21,4.21,0,0,0,47,3.65l-.49,0-.49,0-1,.07-1.11.09-1.17,0c-.78,0-1.57-.07-2.4-.06s-1.66,0-2.57,0c-.46-.06-.86-.16-1.29-.18a11.76,11.76,0,0,0-1.33,0,21.93,21.93,0,0,0-2.7.07l-.66.19a3.19,3.19,0,0,1-.72.15l-.35,0H29.64a14.37,14.37,0,0,1-2.91-.14l-.67-.17a5.34,5.34,0,0,0-.71-.07c-.44,0-.94,0-1.41,0l-1.45.06L21,3.59l-2.86-.12a7.94,7.94,0,0,0-1.38,0l-.33,0-.32.09-.7.21c-.24.05-.46.05-.69.08l-.18,0h-1.9c-.91,0-1.78,0-2.65,0a8,8,0,0,1-2.56-.22c-.8-.09-1.6-.11-2.39-.16L3.93,3.48l-1.08,0-3.93.14c-1.2,0-2.2,0-3-.06Z" transform="translate(6.77 -2.99)"/></g></g></svg>