<svg xmlns="http://www.w3.org/2000/svg" viewBox="0 0 153.44 12.65"><defs><style>.cls-1{fill:#c7b299;}</style></defs><g id="Layer_2" data-name="Layer 2"><g id="Layer_1-2" data-name="Layer 1"><path class="cls-1" d="M128.73,6.72l2-.17c.67,0,1.41-.11,2.39-.08a2.87,2.87,0,0,1,1.47.63,11.22,11.22,0,0,1,1.08,1.25l.27.33s.18.16.26.23c.06-.08.07.06.18-.16.23-.4.49-1.08.75-1.63a2.35,2.35,0,0,1,1.92-1.35l1,0a4.51,4.51,0,0,1,1.12.18,4.06,4.06,0,0,1,1.15.64,8.36,8.36,0,0,1,.79.78l1.51,1.57,1.53,1.6c.22.22.6.64.69.69l.23.16a0,0,0,0,0,0,0s.1,0,.15,0a4.86,4.86,0,0,0,.63-.57l.79-.78,1.59-1.54L151.79,7c.07-.12.28-.37.17-.34s0,0,0-.1-.06-.1-.06-.16a3.76,3.76,0,0,0-.3-.38C150.67,5,149.8,3.93,149,3c-.37-.45-.92-1.07-1.1-1.32-.11-.08-.26-.23-.33-.24s.06,0,0,.05-.08,0-.27.16l-2.12,2c-.09.1-.12.18-.08.16s0,0,0,.05a.33.33,0,0,0,.07.28,6.86,6.86,0,0,0,.68.76,20.81,20.81,0,0,1,1.33,1.61s-.69-.35-1.8-1.05a6.92,6.92,0,0,1-.93-.66A1.41,1.41,0,0,1,144,4a1.62,1.62,0,0,1,.18-1A22.48,22.48,0,0,1,146.28.59,1.93,1.93,0,0,1,147.5,0a1.78,1.78,0,0,1,.87.2,4.37,4.37,0,0,1,.4.28c.61.66.85,1,1.32,1.52l2.62,3.05a4.83,4.83,0,0,1,.35.44,1.79,1.79,0,0,1,.35.8,1.57,1.57,0,0,1-.08.94,2.1,2.1,0,0,1-.33.6c-.7.72-1.1,1.06-1.67,1.61L149.71,11l-.81.77a4,4,0,0,1-1.09.84c-1.46.42-2.1-.8-2.52-1.2l-1.46-1.65-1.45-1.63a8.76,8.76,0,0,0-.7-.75c-.24-.1-.3-.33-.65-.42a5.11,5.11,0,0,0-.91-.2h-1a1.41,1.41,0,0,0-1.17.78c-.31.59-.49,1.09-.88,1.72a.94.94,0,0,1-1.32.29,3,3,0,0,1-.36-.36l-.26-.34c-.66-1-1.17-1.68-2-1.78s-1.67-.1-2.31-.14Z"/><path class="cls-1" d="M24.72,6.72l-2,.16c-.63,0-1.48,0-2.31.14S19,7.84,18.31,8.8l-.25.34a3.77,3.77,0,0,1-.37.36,1,1,0,0,1-1.32-.29c-.39-.63-.57-1.12-.88-1.72a1.4,1.4,0,0,0-1.16-.78h-1a5.31,5.31,0,0,0-.91.2c-.34.09-.4.32-.65.42a7.47,7.47,0,0,0-.69.75L9.62,9.72,8.15,11.37c-.42.4-1.05,1.61-2.52,1.2a4.14,4.14,0,0,1-1.09-.84L3.73,11,2.12,9.45c-.57-.55-1-.88-1.67-1.61a1.63,1.63,0,0,1-.33-.59A1.61,1.61,0,0,1,0,6.3a1.77,1.77,0,0,1,.34-.8,3.55,3.55,0,0,1,.36-.44L3.35,2c.47-.53.72-.86,1.32-1.51a3,3,0,0,1,.4-.29A1.78,1.78,0,0,1,5.94,0,1.93,1.93,0,0,1,7.16.59,22.48,22.48,0,0,1,9.28,3a1.55,1.55,0,0,1,.18,1,1.41,1.41,0,0,1-.45.8,6.92,6.92,0,0,1-.93.66C7,6.13,6.29,6.48,6.29,6.48A19,19,0,0,1,7.61,4.87a7,7,0,0,0,.69-.76.36.36,0,0,0,.06-.28c0-.06,0,0,0-.05s0-.06-.08-.16l-2.12-2C6,1.45,6,1.48,5.88,1.45s0,0,0-.05-.22.16-.33.24c-.18.25-.73.87-1.1,1.32-.82,1-1.69,2-2.6,3.06-.09.12-.26.3-.3.38s-.08.08-.06.16,0,.12,0,.1.1.22.17.34L3.11,8.42,4.69,10l.79.77a6,6,0,0,0,.62.57c.06,0,.18,0,.16,0s0,.05,0,0l.23-.16c.09-.05.46-.48.68-.7L8.75,8.92l1.51-1.58a8.33,8.33,0,0,1,.79-.77,4.1,4.1,0,0,1,1.16-.64,4.43,4.43,0,0,1,1.11-.18l1,0a2.33,2.33,0,0,1,1.92,1.35c.26.56.52,1.24.75,1.63.11.22.12.08.18.16a2.15,2.15,0,0,0,.27-.23l.26-.33A11.33,11.33,0,0,1,18.82,7.1a2.84,2.84,0,0,1,1.47-.63c1,0,1.71.07,2.38.08Z"/></g></g></svg>